<svg xmlns="http://www.w3.org/2000/svg" xmlns:xlink="http://www.w3.org/1999/xlink" viewBox="0 0 300 154"><defs><style>.cls-1{fill:none;}.cls-2{fill:#e2edf9;}.cls-3{fill:#fff;}.cls-4{clip-path:url(#clip-path);}.cls-5{fill:#f79c34;}.cls-5,.cls-6{fill-rule:evenodd;}.cls-6{fill:#333e47;}</style><clipPath id="clip-path"><rect class="cls-1" x="7.39" y="49.68" width="284.86" height="54.65"/></clipPath></defs><title>amazon-pay</title><g id="bg"><rect class="cls-2" width="300" height="154"/></g><g id="runder-rahmen"><rect class="cls-3" width="300" height="154" rx="9.21"/></g><g id="amazon-pay"><g class="cls-4"><path class="cls-5" d="M119.79,92.42c-10.53,7.77-25.79,11.9-38.93,11.9A70.42,70.42,0,0,1,33.3,86.18c-1-.89-.1-2.1,1.08-1.42A95.72,95.72,0,0,0,82,97.39,94.6,94.6,0,0,0,118.26,90C120,89.21,121.53,91.14,119.79,92.42Z"/><path class="cls-5" d="M124.17,87.42c-1.35-1.72-8.9-.82-12.29-.41-1,.13-1.19-.77-.26-1.42,6-4.24,15.9-3,17-1.6s-.3,11.33-6,16.06c-.87.72-1.69.33-1.31-.62C122.68,96.25,125.52,89.15,124.17,87.42Z"/><path class="cls-6" d="M112.12,55.69V51.57a1,1,0,0,1,1-1h18.43a1,1,0,0,1,1.06,1V55.1c0,.59-.5,1.36-1.38,2.58l-9.55,13.64a20.47,20.47,0,0,1,10.51,2.25,1.89,1.89,0,0,1,1,1.61v4.39a1,1,0,0,1-1.36.94,21.23,21.23,0,0,0-19.47,0c-.64.35-1.31-.34-1.31-1V75.42a5,5,0,0,1,.68-2.83l11.06-15.87h-9.63A1,1,0,0,1,112.12,55.69Z"/><path class="cls-6" d="M44.88,81.37H39.27a1,1,0,0,1-1-.94V51.64a1.06,1.06,0,0,1,1.09-1h5.22a1.06,1.06,0,0,1,1,1v3.76h.1C47.06,51.7,49.63,50,53.08,50s5.71,1.7,7.28,5.33A8.28,8.28,0,0,1,74.6,53.15c1.78,2.42,1.41,5.94,1.41,9V80.34a1.05,1.05,0,0,1-1.08,1h-5.6a1,1,0,0,1-1-1V65.08a37.1,37.1,0,0,0-.15-5.39c-.42-1.94-1.68-2.48-3.3-2.48a3.73,3.73,0,0,0-3.35,2.36C60.93,61,61,63.45,61,65.08V80.34a1.06,1.06,0,0,1-1.08,1H54.3a1,1,0,0,1-1-1V65.08c0-3.21.52-7.93-3.45-7.93S46,61.75,46,65.08V80.34A1.05,1.05,0,0,1,44.88,81.37Z"/><path class="cls-6" d="M148.57,55.88c-4.13,0-4.39,5.63-4.39,9.14s-.05,11,4.34,11,4.56-6.05,4.56-9.75a26.72,26.72,0,0,0-.84-7.63A3.51,3.51,0,0,0,148.57,55.88Zm0-5.88c8.33,0,12.83,7.15,12.83,16.23,0,8.78-5,15.75-12.83,15.75-8.16,0-12.61-7.15-12.61-16S140.41,50,148.52,50Z"/><path class="cls-6" d="M172.14,81.37h-5.59a1,1,0,0,1-1-1V51.55a1.06,1.06,0,0,1,1.08-.94h5.2a1.05,1.05,0,0,1,1,.8v4.41h.11c1.57-3.94,3.77-5.82,7.64-5.82a7.35,7.35,0,0,1,6.54,3.39c1.47,2.3,1.47,6.18,1.47,9V80.47a1.06,1.06,0,0,1-1.08.9h-5.62a1.06,1.06,0,0,1-1-.9V64.84c0-3.15.37-7.75-3.5-7.75a3.68,3.68,0,0,0-3.25,2.3,12.87,12.87,0,0,0-.89,5.45v15.5A1.07,1.07,0,0,1,172.14,81.37Z"/><path class="cls-6" d="M103.07,81.3a1.15,1.15,0,0,1-1.32.13,13.51,13.51,0,0,1-3.21-3.74c-3.08,3.14-5.26,4.08-9.25,4.08-4.72,0-8.39-2.91-8.39-8.74a9.51,9.51,0,0,1,6-9.16c3-1.34,7.29-1.58,10.54-1.95V61.2c0-1.34.11-2.92-.68-4.07a3.75,3.75,0,0,0-3.15-1.46A4.26,4.26,0,0,0,89.09,59a1.2,1.2,0,0,1-1,1l-5.43-.59a1,1,0,0,1-.84-1.17c1.23-6.5,7-8.53,12.32-8.59h.41c2.7,0,6.15.78,8.26,2.79,2.72,2.55,2.46,6,2.46,9.66V70.9c0,2.63,1.09,3.78,2.12,5.2a1.05,1.05,0,0,1,0,1.49c-1.15,1-3.18,2.73-4.3,3.72ZM97.42,67.63c0,2.18,0,4-1,6a4.57,4.57,0,0,1-3.88,2.55c-2.15,0-3.41-1.64-3.41-4.07,0-4.78,4.29-5.65,8.34-5.65Z"/><path class="cls-6" d="M29.56,81.3a1.15,1.15,0,0,1-1.32.13A13.51,13.51,0,0,1,25,77.69c-3.08,3.14-5.26,4.08-9.25,4.08-4.72,0-8.39-2.91-8.39-8.74a9.51,9.51,0,0,1,6-9.16c3-1.34,7.29-1.58,10.54-1.95V61.2c0-1.34.11-2.92-.68-4.07a3.76,3.76,0,0,0-3.15-1.46A4.28,4.28,0,0,0,15.57,59a1.18,1.18,0,0,1-1,1l-5.44-.59a1,1,0,0,1-.83-1.17c1.23-6.5,7-8.53,12.32-8.59h.41c2.7,0,6.15.78,8.25,2.79,2.73,2.55,2.47,6,2.47,9.66V70.9c0,2.63,1.09,3.78,2.12,5.2.35.51.44,1.12,0,1.49-1.15,1-3.18,2.73-4.3,3.72ZM23.91,67.63c0,2.18.05,4-1.05,6A4.57,4.57,0,0,1,19,76.13c-2.15,0-3.41-1.64-3.41-4.07,0-4.78,4.28-5.65,8.34-5.65Z"/><path class="cls-6" d="M265.23,91.7V89.58c0-.6.29-1,.92-1a12.79,12.79,0,0,0,4,.09,4.63,4.63,0,0,0,3.29-2.9c.92-2.1,1.53-3.79,1.91-4.9L263.69,52c-.2-.5-.26-1.41.72-1.41h4.08a1.27,1.27,0,0,1,1.27,1L278.22,75l8.07-23.48a1.28,1.28,0,0,1,1.27-1h3.84c1,0,.92.91.73,1.41l-11.57,29.8c-1.5,4-3.5,10.28-8,11.38a11.81,11.81,0,0,1-6.76-.32A1.32,1.32,0,0,1,265.23,91.7Z"/><path class="cls-6" d="M259.79,79.61a1,1,0,0,1-1,1h-2.87a1.13,1.13,0,0,1-1.13-1l-.29-2a16.62,16.62,0,0,1-4.7,2.79c-3.38,1.31-7.28,1.53-10.58-.5a8.43,8.43,0,0,1-3.66-7.29,8.92,8.92,0,0,1,2.27-6.21c2.08-2.25,5.11-3.35,8.76-3.35a27.32,27.32,0,0,1,7.66,1V60.16c0-4-1.69-5.74-6.13-5.74a29.65,29.65,0,0,0-9.62,1.64.88.88,0,0,1-.92-1V52.85a1.4,1.4,0,0,1,1-1.22,29.13,29.13,0,0,1,10.13-2c5.08,0,11.11,1.14,11.11,8.94Zm-5.53-5.75V67.92a30.61,30.61,0,0,0-6.36-.75c-2,0-4.09.46-5.21,1.66a4.94,4.94,0,0,0-1.21,3.37,4.54,4.54,0,0,0,1.82,4c1.49,1,3.79.88,6,.27A13,13,0,0,0,254.26,73.86Z"/><path class="cls-6" d="M217.38,54.51c6.38,0,8.12,5,8.12,10.76,0,3.87-.67,7.33-2.68,9.3-1.5,1.48-3.18,1.89-5.7,1.89a13.78,13.78,0,0,1-7.41-2.81V57.23A13.17,13.17,0,0,1,217.38,54.51Zm-8.65,38.22h-3.85a1,1,0,0,1-1-1V51.61a1,1,0,0,1,1-1h3a1.12,1.12,0,0,1,1.12,1l.31,2.11a15.17,15.17,0,0,1,9.7-4c9.49,0,12.61,7.82,12.61,16,0,8.7-4.77,15.68-12.84,15.68a13.49,13.49,0,0,1-9-3.43V91.75A1,1,0,0,1,208.73,92.73Z"/></g></g></svg>