<svg xmlns="http://www.w3.org/2000/svg" viewBox="0 0 300 154"><defs><style>.cls-1{fill:#e2edf9;}.cls-2{fill:#fff;}.cls-3,.cls-4{fill:#001652;}.cls-4,.cls-5{fill-rule:evenodd;}.cls-5{fill:#febe10;}</style></defs><title>gls</title><g id="bg"><rect class="cls-1" width="300" height="154"/></g><g id="runder-rahmen"><rect class="cls-2" width="300" height="154" rx="9.21"/></g><g id="gls"><polygon class="cls-3" points="226.72 50.04 214.41 113.64 243.97 113.64 246.88 97.76 233.53 97.76 242.83 50.04 226.72 50.04"/><path class="cls-4" d="M281.21,64.1A32.91,32.91,0,0,1,290,65.53L292.75,51a64.75,64.75,0,0,0-11.07-1c-17.59,0-25.84,10.49-25.84,22.27,0,15.35,15.64,15.16,15.64,21.69,0,3.29-2.33,5.1-7.34,5.1a37.29,37.29,0,0,1-11.06-1.86l-3,15.73a70.57,70.57,0,0,0,12.49,1c15.63,0,26.7-10.44,26.7-23.07,0-14.92-15.74-15.16-15.74-21.79.05-2.91,2-5,7.68-5"/><path class="cls-4" d="M201.68,50C177.47,50,162,68.11,162,90.33c0,13.87,7.34,23.5,25.75,23.5a55.27,55.27,0,0,0,21.21-4l5.91-30.75H198.63l-3.48,18.74a18.3,18.3,0,0,1-4.43.48c-8.15,0-11.06-4.53-11.06-10.4,0-11.06,6.77-22.5,20.59-22.5a40,40,0,0,1,12,2c.38.1.81.24,1.24.34,1.38.47,2.48,1,3.39,1.43l3.24-16.64A72.76,72.76,0,0,0,201.68,50"/><path class="cls-5" d="M80.25,50.18,75.92,71.35h30C81,108.16,31.67,102,18.61,86.7,7.41,73.54,17.08,51,50.41,37,17.37,47-1.08,73.45,9.79,91.18c12.35,20.12,50.77,28.51,84.91,18.74,22.84-8.06,32.52-19.31,36.14-25.36l-5.63,29.22h22.46l12.2-63.6Z"/></g></svg>