<svg xmlns="http://www.w3.org/2000/svg" viewBox="0 0 150.15 60"><defs><style>.cls-1{fill:#d1dee4;}.cls-2,.cls-4{fill:#044c86;}.cls-3{fill:#fff;}.cls-4{font-size:12px;font-family:ArialMT, Arial;}.cls-5{fill:none;stroke:#fff;stroke-miterlimit:10;stroke-width:0.99px;}</style></defs><title>ihk-logo-it</title><g id="ihk-logo"><path class="cls-1" d="M76.43,0H0V60H76.43A72.68,72.68,0,0,0,76.43,0Z"/><path class="cls-2" d="M76,0a74.78,74.78,0,0,1,0,60h74.15V0Z"/><path class="cls-3" d="M144.19,34.14c.45.75.15,1.2-.45,1.2h-3.46c-.75,0-1.2-.6-1.65-1.2l-6.46-10.37L128,28.28v5.86a1.18,1.18,0,0,1-1.2,1.2h-2.25a1.18,1.18,0,0,1-1.2-1.2V11.6a1.18,1.18,0,0,1,1.2-1.2h2.25a1.18,1.18,0,0,1,1.2,1.2v9.92l9.32-10.22c1.05-1.05,1.5-1.05,2.1-1.05h3.31c.75,0,.75.6.15,1.2l-7.67,8.72ZM91.76,10.25H89.2a1.18,1.18,0,0,0-1.2,1.2V34a1.18,1.18,0,0,0,1.2,1.2h2.56A1.18,1.18,0,0,0,93,34V11.45C93.11,10.85,92.51,10.25,91.76,10.25Zm25.08,0h-2.4a1.18,1.18,0,0,0-1.2,1.2v9h-9.92v-9a1.18,1.18,0,0,0-1.2-1.2H99.57a1.18,1.18,0,0,0-1.2,1.2V34a1.18,1.18,0,0,0,1.2,1.2H102a1.18,1.18,0,0,0,1.2-1.2V24.67h9.92V34a1.18,1.18,0,0,0,1.2,1.2h2.4A1.19,1.19,0,0,0,117.9,34V11.45A1.06,1.06,0,0,0,116.84,10.25Z"/></g><g id="text"><text class="cls-4" transform="translate(33.71 27.66)">CI<tspan x="-30.01" y="14.4">ALLENIAMO.</tspan></text></g><g id="rahmen"><rect class="cls-5" x="0.5" y="0.5" width="149" height="59"/></g></svg>