<svg xmlns="http://www.w3.org/2000/svg" viewBox="0 0 300 154"><defs><style>.cls-1{fill:#e2edf9;}.cls-2{fill:#fff;}.cls-3{fill:#fefefe;}.cls-4{fill:#409ed2;}.cls-5{fill:#007ec2;}.cls-6{fill:#029cdc;}.cls-7{fill:#003087;}.cls-8{fill:#363466;}.cls-9{fill:#99989a;}.cls-10{fill:#98989a;}.cls-11{fill:#99999a;}.cls-12{fill:#b1b1b1;}.cls-13{fill:#f1f8fc;}.cls-14{fill:#02579f;}.cls-15{fill:#04589f;}.cls-16{fill:#1c8fce;}.cls-17{fill:#2d77bc;}.cls-18{fill:#44b7e7;}.cls-19{fill:#075aa1;}.cls-20{fill:#2888c7;}.cls-21{fill:#277ec1;}.cls-22{fill:#90d1f3;}.cls-23{fill:#99d3f2;}.cls-24{fill:#2483c5;}.cls-25{fill:#037fc3;}.cls-26{fill:#1697d4;}.cls-27{fill:#139fdb;}.cls-28{fill:#f7ae31;}.cls-29{fill:#12a6df;}.cls-30{fill:#2488c9;}.cls-31{fill:#86cef0;}.cls-32{fill:#eff8fc;}.cls-33{fill:#85cef0;}.cls-34{fill:#6dc6ee;}.cls-35{fill:#027fc3;}.cls-36{fill:#ebf1f7;}.cls-37{fill:#78c9f0;}.cls-38{fill:#61c1eb;}.cls-39{fill:#52bbe8;}.cls-40{fill:#e1eef7;}.cls-41{fill:#36b2e5;}.cls-42{fill:#26ace2;}.cls-43{fill:#2b94cf;}.cls-44{fill:#41b5e7;}.cls-45{fill:#dee9f3;}.cls-46{fill:#b1dff4;}.cls-47{fill:#3ab2e4;}.cls-48{fill:#34a2d8;}.cls-49{fill:#e7f0f7;}.cls-50{fill:#1d89c9;}.cls-51{fill:#c3e0f1;}.cls-52{fill:#35b2e4;}.cls-53{fill:#4589c4;}.cls-54{fill:#1d8aca;}.cls-55{fill:#d6e2ed;}.cls-56{fill:#12a0dc;}.cls-57{fill:#b8e2f4;}.cls-58{fill:#51b0de;}.cls-59{fill:#129eda;}.cls-60{fill:#90d2f2;}.cls-61{fill:#7dcbf0;}.cls-62{fill:#eef6fa;}.cls-63{fill:#80ccf0;}.cls-64{fill:#5fc0eb;}.cls-65{fill:#6ac4ed;}.cls-66{fill:#fdfefe;}.cls-67{fill:#fdfdfe;}.cls-68{fill:#be012d;}.cls-69{fill:#e2b836;}.cls-70{fill:#bd012d;}.cls-71{fill:#e1b736;}.cls-72{fill:#deb53a;}.cls-73{fill:#fcfcfc;}.cls-74{fill:#ecf7fc;}.cls-75{fill:#b9e3f6;}.cls-76{fill:#2292cf;}.cls-77{fill:#3491cd;}.cls-78{fill:#def1fa;}.cls-79{fill:#8fd1f3;}.cls-80{fill:#4cbae9;}.cls-81{fill:#47a7d9;}.cls-82{fill:#c3e7f6;}.cls-83{fill:#16a6df;}.cls-84{fill:#bde2f4;}.cls-85{fill:#92d3f1;}.cls-86{fill:#24abe2;}.cls-87{fill:#e3ecf4;}.cls-88{fill:#17a1db;}.cls-89{fill:#11a5df;}.cls-90{fill:#fbfcfc;}.cls-91{fill:#24a4dc;}.cls-92{fill:#25ace2;}.cls-93{fill:#8dd0f2;}.cls-94{fill:#c8e5f3;}.cls-95{fill:#f7fbfd;}.cls-96{fill:#eee5e7;}.cls-97{fill:#f7f6f7;}.cls-98{fill:#f6eff1;}.cls-99{fill:#b94b4d;}.cls-100{fill:#d68735;}.cls-101{fill:#ebdee0;}.cls-102{fill:#f6f2e9;}.cls-103{fill:#f3efe9;}.cls-104{fill:#f7f6f3;}.cls-105{fill:#ede3e5;}.cls-106{fill:#eeeeef;}.cls-107{fill:#282325;}.cls-108{fill:#b6b6b7;}.cls-109{fill:#b6b6b6;}.cls-110{fill:#b2b2b2;}.cls-111{fill:#b9b9b9;}.cls-112{fill:#b3b3b3;}.cls-113{fill:#b4b4b5;}.cls-114{fill:#afafaf;}.cls-115{fill:#b0b0b0;}.cls-116{fill:#b4b4b4;}.cls-117{fill:#c4c4c4;}.cls-118{fill:silver;}.cls-119{fill:#aeaeae;}.cls-120{fill:#bfbfbf;}.cls-121{fill:#bbb;}.cls-122{fill:#027ec2;}.cls-123{fill:#fe0101;}.cls-124{fill:#28282c;}.cls-125{fill:#615657;}.cls-126{fill:#4f494c;}.cls-127{fill:#312e33;}.cls-128{fill:#9aacb7;}.cls-129{fill:#e58990;}.cls-130{fill:#373132;}.cls-131{fill:#504852;}.cls-132{fill:#d61616;}.cls-133{fill:#645b5d;}.cls-134{fill:#7a6c56;}.cls-135{fill:#fe0000;}.cls-136{fill:#69698b;}.cls-137{fill:#3b3633;}.cls-138{fill:#e4bc41;}.cls-139{fill:#f8f9f9;}.cls-140{fill:#f8f8f8;}.cls-141{fill:#fcfdfd;}.cls-142{fill:#fcfcfd;}.cls-143{fill:#c1e7f7;}.cls-144{fill:#cb171f;}.cls-145{fill:#eaa5b0;}.cls-146{fill:#bcbcbd;}</style></defs><title>paypal-plus</title><g id="bg"><rect class="cls-1" width="300" height="154"/></g><g id="runder-rahmen"><rect class="cls-2" width="300" height="154" rx="9.21"/></g><g id="paypal-plus"><path class="cls-3" d="M265.64,145.45a.72.72,0,0,1,.22-.93,17,17,0,0,1,2.65-1.44c3.25-1.87,5.1-4.47,5.09-8.44q-.08-48.24-.05-96.49a9.28,9.28,0,0,0-7.7-9.63,30.74,30.74,0,0,0-10.21-.16c-.87,1.84-.38,2.72,1.35,2.88s3.48,0,5.22.11c5.65.31,8.14,2.86,8.14,8.44q0,46.32,0,92.64c0,6-2.32,8.48-8.32,8.88-1.19.08-2.39.06-3.58.06H42.37a19.51,19.51,0,0,1-6.79-.73,6.89,6.89,0,0,1-5-6.53c-.06-1-.06-2-.06-3V41.46c0-.73,0-1.46,0-2.2.18-4.89,2.51-7.38,7.38-7.86,2.1-.2,4.22,0,6.32-.14.92-.07,1.93-.12,2-1.4s-.92-1.7-2-1.7c-3.55,0-7.14-.53-10.6.89a9.44,9.44,0,0,0-6.29,8.84c-.07,1.19,0,2.38,0,3.57,0,29.78.13,59.57-.11,89.35-.05,6.68,1.8,11.43,8.35,13.72"/><path class="cls-4" d="M35.8,145.45v-.55c1.3-1.19,2.93-.88,4.45-.89,11.08,0,22.17,0,33.25,0q93.44,0,186.86,0c1.79,0,3.7-.46,5.28.88v.55Z"/><path class="cls-5" d="M265.64,144.9H35.8a4.87,4.87,0,0,1-3.68-1.09c-1.22-.9-2.57-1.47-3.55-2.87a11.58,11.58,0,0,1-2.14-7.12q0-48,0-95.94a9.47,9.47,0,0,1,3.18-7.46,12,12,0,0,1,7.74-3.18c3.28,0,6.56,0,9.91,0v4.95c-3.07,0-6.16,0-9.25,0a7.73,7.73,0,0,0-5,1.89c-1.12.93-1.28,2.23-1.62,3.46a6.49,6.49,0,0,0,0,1.65q0,47.15,0,94.28a7.76,7.76,0,0,0,.23,2.65c1.07,3.08,3.72,3.7,6.38,4.36a6.89,6.89,0,0,0,1.64,0q110.66,0,221.29.05a34.82,34.82,0,0,0,4.72-.65c1.95-.27,3.77-2.77,3.82-4.78,0-.45,0-.91,0-1.37V35.82c-1.32-1.49-2.65-2.94-4.85-3.36a10.78,10.78,0,0,0-1.78-.27c-2.84,0-5.68,0-8.64,0V27.23a102.78,102.78,0,0,1,10.39.07c4.47.46,7.48,2.73,9.61,7.1a3.68,3.68,0,0,1,.2,1.84c0,2.93,0,5.86,0,8.79,0,30.06,0,60.11,0,90.17,0,3.73-1.68,6.11-4.56,8.08A7.45,7.45,0,0,1,265.64,144.9Z"/><path class="cls-6" d="M175.19,40.43,174,41.59c-1.21,4.29-1.09,8.8-2.49,13.07h-9.59a1.72,1.72,0,0,1-.69-2.36c.65-.89.27-1.74.48-2.57.41-1.68.37-3.43,1-5.09.43-1.22-.21-2.67.68-3.85-.06-3,.84-5.91,1.22-8.86.34-2.61.24-5.39,1.53-7.85-.2-1.61.37-3.15.49-4.72.14-1.76.92-3.43.65-5.26-.12-.79,1.27-2.13,2.06-2.25a9.07,9.07,0,0,1,1.38,0c5.4,0,10.81-.18,16.2.06A13.3,13.3,0,0,1,197,16.59a7.72,7.72,0,0,1,1.45,4.32,20.73,20.73,0,0,1-2.63,12.33c-2.19,3.95-5.91,5.69-9.38,6.68a20.47,20.47,0,0,1-5.55.5C179,40.44,177.07,40.43,175.19,40.43Z"/><path class="cls-7" d="M57.88,13.12,59,12a2.42,2.42,0,0,1,.5-.12c5.4,0,10.81,0,16.21,0a20.47,20.47,0,0,1,6.41,1.12,9.32,9.32,0,0,1,6.19,5.47A3.89,3.89,0,0,1,88.57,20c0,2.11.1,4.22,0,6.32a11.63,11.63,0,0,1-1.07,4.22,16.79,16.79,0,0,1-4.24,6.22,23.5,23.5,0,0,1-6.92,3.22c-2.87.82-5.73.29-8.59.48-1,.07-2.15-.23-3.32,1.15a32.13,32.13,0,0,0-1.11,6.52c0,1-.77,1.75-.59,2.8a3.71,3.71,0,0,1-.53,2.79c-.2.28-.38.58-.71,1.07-3-.15-6,.21-9.09-.23-.22,0-.39-.37-.68-.65.3-1-.31-2.12.49-3.28.6-.88-.44-2.31.62-3.32.18-.17,0-.7,0-1.07a7.36,7.36,0,0,1,.5-3.09c.4-.92-.32-2.16.6-3-.37-1.63.66-3.12.54-4.71a7.38,7.38,0,0,1,.54-2.8c.27-.91-.4-2,.53-2.81-.27-1.71.68-3.29.59-5s.9-3.27.58-5C57.73,17.75,57.08,15.44,57.88,13.12Z"/><path class="cls-7" d="M112.55,28.31c.51-.56-.11-1.69,1.2-2.11h8.17c1.14.86.91,2,.52,3.14a2.37,2.37,0,0,0-.32,1c.18,3-.88,5.89-1.19,8.87-.25,2.5-1.06,4.95-1,7.51-1.05,1,0,2.47-.63,3.29-.85,1.17-.09,2.31-.72,3.63l-1.13,1.12c-2.37,0-4.75,0-7.12,0-2,0-2.31-.59-1.56-2.64-1.13-.54-1.24,1.24-2.24,1a10.46,10.46,0,0,1-7,2.19,19.88,19.88,0,0,1-5.56-.48,11.14,11.14,0,0,1-7.07-8.45,17.26,17.26,0,0,1-.44-4.44C86.87,37.77,88.07,34,91.17,31c1.59-1.53,3-3.29,5.17-4.08a33.86,33.86,0,0,1,5-1.3c1.19,0,2.38,0,3.57,0a9.42,9.42,0,0,1,6.7,2.37A1,1,0,0,0,112.55,28.31Z"/><path class="cls-6" d="M227.54,54.66H218.4V52.07A17.53,17.53,0,0,0,216,53.43c-1.88,1-3.81,2.06-6.09,1.86-.61-.06-1.47-.15-1.81.18-.76.73-1.05-.23-1.57-.27-5.84-.45-8.58-3.78-10.11-8.59-.38-1.2.27-2.61-.48-3.83,1.13-1.19.06-2.72.7-4.1.82-1.75,1.24-3.68,2.2-5.4a11.75,11.75,0,0,1,3.33-3.8c3-2.19,6.16-4.24,10.17-3.9a28.69,28.69,0,0,1,5,.43,7.49,7.49,0,0,1,3.81,2.09c.25.27.51.53.8.81.64-.78-.31-2.12,1.24-2.72h8.16c.2.37.79.48.75,1-.09,1.26.41,2.66-.25,3.73s.24,2.47-.66,3.6a3,3,0,0,0-.16,2.09c.15.81-.77,1.19-.59,2,.42,1.81-.34,3.54-.64,5.24-.56,3.25-1,6.53-1.53,9.77C228.17,54.18,227.64,54.25,227.54,54.66Z"/><path class="cls-7" d="M126.53,27l.81-.81h8.21c1.67,1.11,2,3,2.5,4.69.89,3.38,2,6.68,3,10,.07.23.37.39.57.59,2.42-3.32,4.37-7,7-10.15.93-1.14,1.64-2.45,2.46-3.67a2.92,2.92,0,0,1,2.67-1.51c2,0,4,0,6,0,.76,0,1.58-.05,1.86.76a2.41,2.41,0,0,1-.33,2.24c-1.51,2.32-3.25,4.46-4.73,6.81-2.21,3.5-4.67,6.85-7,10.25-3.3,4.77-6.63,9.51-9.89,14.3A13.26,13.26,0,0,1,136,64.62c-2.5,0-5.15,0-7.8,0a1.68,1.68,0,0,1-1.74-1A25.77,25.77,0,0,1,130,58.23c1.27-1.57,2.14-3.41,3.59-4.88a2.82,2.82,0,0,0,.54-2.92c-1.94-5.34-3.78-10.71-5.65-16.06-.59-1.68-1.14-3.38-1.76-5A8.75,8.75,0,0,1,126.53,27Z"/><path class="cls-8" d="M141.47,102.61h38.85v26.07c-2.26.41-29.38.56-38.85.19Z"/><path class="cls-6" d="M240.6,11.84h8.51c-.16,1.82.57,3.67-.52,5.43.41,1.81-.94,3.47-.52,5.25.24,1-.71,1.57-.62,2.52s.4,1.83-.51,2.51c.37,1.72-.51,3.3-.59,5a18.55,18.55,0,0,1-1,5.35,2.25,2.25,0,0,0-.08.78c.13,3-1.2,5.86-1.1,8.87-1.26,1.38,0,3.24-1,4.8-.86,1.32-.59,1.5-1.46,2.39-2.29,0-4.57,0-6.86,0-1.45,0-2-.75-1.45-2a4.94,4.94,0,0,0,.35-1.5c.15-1-.36-2.16.35-3.15s-.36-2.19.73-3c.13-.1,0-.53,0-.8a8.37,8.37,0,0,1,.49-3.37c.39-.91.13-2,.5-3.07.47-1.35.32-2.92.56-4.41a42.73,42.73,0,0,1,1.16-6.13,6.3,6.3,0,0,0,0-2.45c-.08-.76.74-1.17.59-2a6.47,6.47,0,0,1,.49-3.08c.28-.88-.22-1.91.54-2.81.27-.32.08-1.06,0-1.61A4.3,4.3,0,0,1,240.6,11.84Z"/><path class="cls-9" d="M197.24,65.79h7.3c.26.94-.73,1.7-.52,2.68a6.1,6.1,0,0,1-.48,3.07c-.27.9.28,2-.58,2.78.39,1.82-.76,3.46-.58,5.26a5.27,5.27,0,0,1-.41,2.56c-.23.57.46,1.56.51,2.47,0,.49.79.94,1.27,1.45.87,0,1.77,0,2.68,0a4,4,0,0,0,3.72-2.37,12.63,12.63,0,0,0,1.47-4.85c.2-1.74.85-3.47.65-5.24-.11-1,.7-1.58.62-2.52a3.74,3.74,0,0,1,.35-2.32c.44-.76.18-1.91.23-3,2-1.25,4.25-.07,6.11-.67.7.59,1.34,1.12.94,1.75-.69,1.09-.17,2.36-.6,3.33-.5,1.15-.2,2.29-.51,3.36-.76,2.67-.65,5.49-1.59,8.12-.28.79.37,1.83-.56,2.51-.75,4.21-3.8,6.07-7.42,7.46-1.93.75-3.88.41-5.82.52a10.07,10.07,0,0,1-4.17-.53,8.22,8.22,0,0,1-4.11-3.46c-.57-.86-.14-1.78-.66-2.48a1.46,1.46,0,0,1,.15-2.12c.18-.2,0-.71,0-1.07.19-1.22-.37-2.47.37-3.69.64-1.05-.36-2.52.72-3.54-.4-1.81.78-3.46.55-5.26C196.73,68.53,198.08,67.34,197.24,65.79Z"/><path class="cls-10" d="M162.34,84.17A55.16,55.16,0,0,1,161,91.48h-6.4c0-1.4-.48-2.88.49-4.26-.42-1.73.78-3.27.55-5-.13-1,.76-1.75.57-2.79a6.8,6.8,0,0,1,.49-3.07c.26-.9-.27-2,.59-2.78-.37-1.63.66-3.11.53-4.7a6.43,6.43,0,0,1,.75-3.18c4.29,0,8.66,0,13,0a6.06,6.06,0,0,1,5.52,5.62,13.39,13.39,0,0,1-.65,5.23,8.7,8.7,0,0,1-3.44,4.62c-2.54,1.68-5.16,1.65-7.88,1.52A2.93,2.93,0,0,0,162.34,84.17Z"/><path class="cls-11" d="M229.35,73.14,231.16,75c2.4.11,4.36,1.42,6.34,2.57A3.43,3.43,0,0,1,238.74,80c.13.8,1,1.5.1,2.38-.15.14-.13.49-.14.75-.22,5.12-5.08,9-10.07,9a19,19,0,0,1-7.27-1.07,6.61,6.61,0,0,1-1.31-.82c-.35-.23-.75-.39-1.15-.6,0-.26-.11-.6,0-.79a33.75,33.75,0,0,1,3.4-4.91c1.54.43,2.53,1.69,4,2.18a4.47,4.47,0,0,0,5.11-1.36c.05-.67.29-1.38-.21-2a4.21,4.21,0,0,0-2.62-1.61A10.71,10.71,0,0,1,223.47,79a2.9,2.9,0,0,1-1.26-2.25,17,17,0,0,1,0-3.84,9.09,9.09,0,0,1,3.09-5.56c2.22-1.74,4.8-3,7.67-2.64,2.52.29,5.14.64,7.38,2.29-1,1.57-2,3.06-3,4.71a2.52,2.52,0,0,1-2.48-.64c-1.24-1.06-4.57-.27-5.48,1.09C229.24,72.32,229.35,72.67,229.35,73.14Z"/><path class="cls-12" d="M54.43,102.54c6.09-1.09,12.36-.39,18.59-.5s12.63,0,19-.05c1.25,0,2.34.6,3.57.73a2.54,2.54,0,0,1,2.12,2c.31,1.25.93,2.4.85,3.77-.11,1.92,0,3.85,0,5.76-.17,4,.59,8.13-.88,12.61-1.13,1.66-3.27,2.09-5.7,2.08q-17.43-.06-34.86,0c-2.44,0-3.87-1.2-5-3.21a3.87,3.87,0,0,1-.29-2.08c0-5.12.08-10.25-.06-15.37C51.64,106,52.16,104.08,54.43,102.54Z"/><path class="cls-10" d="M185.61,86.1h6.71c.76,1.89-.46,3.51-.42,5.36H177.08c.17-1.27-.37-2.59.32-3.7s-.32-2.47.68-3.59c.37-.41.21-1.4.1-2.1s.81-1.16.6-2c-.46-1.8.5-3.47.64-5.24A11.33,11.33,0,0,1,180,71c.65-1.29.14-2.48.46-3.66a9.34,9.34,0,0,1,.75-1.56h6.38a13.17,13.17,0,0,1-.44,3.67,18.4,18.4,0,0,0-.56,4.4c-.32,2.79-1.18,5.48-1.27,8.3,0,.79-.49,1.62-.51,2.52C184.76,85.38,185.28,85.59,185.61,86.1Z"/><path class="cls-13" d="M108.38,110.81l.55-1.1c2.37-1.29,4.94-.6,7.43-.74,1.52-.09,3.06,0,4.59,0,1.28,0,2.57,0,3.86,0s2.57,0,3.86,0h2.47c2.16.22,4.42-.52,6.49.62,1,1.59.77,3.34.55,5-.26,2-1.72,2.37-3.44,2.22a24.06,24.06,0,0,0-4.56-.45c-2,.22-4,.76-6.07.18-4.3-.17-8.6.23-12.88-.22a2.7,2.7,0,0,1-1.64-1.84,6.53,6.53,0,0,0-.51-1,7.35,7.35,0,0,1-.94-1.45,1.94,1.94,0,0,1-.11-.68A1.1,1.1,0,0,1,108.38,110.81Z"/><path class="cls-14" d="M238.7,119.06c.55-1.42,1.19-2.8,1.62-4.25s1.72-2.57,1.71-4.23c0-.26.45-.53.72-.83h3.72c1,3.85,1.73,7.8,2.61,11.89-.9.37-2,.06-2.93.18-.61-.43-.05-1.1-.5-1.59h-4c-.3.47-.38,1.13-1,1.53h-2.81c-.4-.32-.16-.72-.23-1.05A1.6,1.6,0,0,1,238.7,119.06Z"/><path class="cls-14" d="M237.05,120.71a9.32,9.32,0,0,1-5.9,1.68c-1.05-.11-1.85-.87-3.5-.58a3.31,3.31,0,0,0,1.12-3.16c1.88.48,3.67,1.88,5.55,0-.53-2.18-3.45-1.79-4.4-3.92-.28-2,.09-3.91,2.42-5a6,6,0,0,1,5.75.18v2.53c-1.66.13-3.44-1.58-4.92.55,0,.52.47.86,1.07,1.1a6.19,6.19,0,0,1,3.36,2.76A3.5,3.5,0,0,1,237.05,120.71Z"/><path class="cls-15" d="M216.7,115.21c.31.69.91,1.29.82,2.16l3.13-8.17h3.21c-.06,2.52-1.55,4.51-2.33,6.68a29.67,29.67,0,0,1-2.8,6.48H217.3c-1.83,0-1.68-.07-2.29-2a60.6,60.6,0,0,0-2.13-7,3.57,3.57,0,0,1,0-1.35C215.62,111.27,215.84,113.62,216.7,115.21Z"/><path class="cls-16" d="M115.53,123.46h4.06c.43-.18.28-.61.45-1,.74-.18,1.54-.52,1.63.81.48.34,1,.11,1.56.18.23.68-.2,1.05-.71,1.26A37,37,0,0,1,102,127c-.16,0-.28-.2-.39-.36a25.84,25.84,0,0,1,0-2.78c.3-1.27,1.19-1.08,2.14-.9a14.57,14.57,0,0,0,5.92.14C111.57,123.14,113.6,122.53,115.53,123.46Z"/><path class="cls-17" d="M130.92,123.46h3.3c1.69-1.25,3.35-.82,5,0a18.43,18.43,0,0,1,.09,4.91c-3.69.78-7.43.14-11.13.35a1.57,1.57,0,0,1-1.54-1.5C127.09,124.8,129.33,124.49,130.92,123.46Z"/><path class="cls-18" d="M127.62,128.4h11.55c.14.13.19.25.14.37s-.09.18-.14.18H101.34V116c0-.79,1.75.25,2.09-.83a9.88,9.88,0,0,1,7.15.55h14.3c0,1.25-1,1-1.77,1.09h-5.62c-1.57,0-3.13.19-4.69.33-.86.26-1.77.22-2.63.47l-.66.32a3.31,3.31,0,0,1-1.05.38c-1.83.09-3.62-.56-5.43-.26-.77.56-.47,1.34-.51,2.05a5,5,0,0,1-.74,3.31v3.29c1.48,1.34,3.29.75,5,.84s3.09,0,4.64,0c3.74.08,7.47-.06,11.2-.06C124.28,127.78,126.08,127.3,127.62,128.4Z"/><path class="cls-19" d="M226.52,122.3h-3.27c.23-1.17-.27-2.27.43-3.39s.08-2.17.49-3.33a27.7,27.7,0,0,0,.86-5.68c1.11-1.32,2.32-.76,3.62-.41C227.92,113.86,227.23,118,226.52,122.3Z"/><path class="cls-20" d="M111.13,128.4H102c-.4-.58-.17-1.13-.24-1.65.44.24.64-1,1.29-.17.23.29,1,.16,1.54.17,1.83,0,3.66,0,5.48,0a8.33,8.33,0,0,0,2.45,0c.7-.22,1.44,0,2.11-.41s1.66.3,2.22-.6l.59.5c.38-.19.18-.64.38-.92.47,0,.89.28,1.44-.1.21-.14.9-1.13,1.44-.08l1.15-1.07.44.44a1.31,1.31,0,0,0,.92-1h3.84c.14,1.29-1,1.37-1.74,1.7-4.12,1.8-8.34,3.15-12.92,3A1.51,1.51,0,0,0,111.13,128.4Z"/><path class="cls-21" d="M111.13,128.4a.43.43,0,0,1,.43-.54c.64,0,1.41.21,1.88-.06s1.32,0,1.37-.13c.37-1,1,.76,1.47-.2.23-.46,1.34,0,1.81-.63.55,1,1.06-.1,1.47-.19a6.31,6.31,0,0,0,1.66-.52c.51-.29,1.08-.58,1.59-.82a32,32,0,0,1,3.83-1.3c.28-.09.5-.21.43-.55h3.85v.92c-1.74,0-2.58,1.51-3.85,2.37-1,1.7-3.06.74-4.39,1.65Z"/><path class="cls-22" d="M108.93,103.11h.55c4.17.86,5.29,2.79,3.51,6.08a3,3,0,0,1-2.33.06c-1.09-4.06-1.11-4.07-3.7-2.77a1.41,1.41,0,0,0-.14,1.29,1.49,1.49,0,0,1-.06,1.36c-.66.54-1.48.25-2.26.21-2.54-1-2.76-3.33-.51-5.13C105.46,103.05,107.19,103,108.93,103.11Z"/><path class="cls-23" d="M104.53,109.16c.7-.1,1.44.19,2.07-.12.56-1.17-.63-.8-.94-1.24v-1.74a6.38,6.38,0,0,0,2-.89c.54-.49,1.31.54,1.59-.4.39.2.18.65.4.94s.37-.22.77-.3c0,.84.82,1.22,1.33,1.9l-1.07.38V109c.71.34,1.45,0,2.15.15a2.78,2.78,0,0,1,2-.7c.54,0,1.1,0,1.65,0l1.55,0c.37,0,.75,0,1.12,0a7,7,0,0,1,1.44.18,1.86,1.86,0,0,1,.62.37.51.51,0,0,1-.12.63c-3,0-6,0-9,0-.76,0-1.63-.36-2.27.47-.06.08-.38-.58-.82-.49h-6.05C103.07,108.43,103.84,108.91,104.53,109.16Z"/><path class="cls-5" d="M184.26,127.85c-.53.05-.55-.32-.55-.7,0-7.45,0-14.9,0-22.36,0-.71.49-1.09.58-1.68.68-.09.91.4,1.13.89.22,7.86.75,15.72-.23,23.57A.66.66,0,0,1,184.26,127.85Z"/><path class="cls-24" d="M134.22,116.31c1.08-.2,2.37.54,3.3-.88v-5.72c-.76-2.32-.57-4.79-1.1-7.15,1-.2,1.81.42,2.75.78v13c-2.09,1.64-4.35.51-6.8.77C132.94,115.8,133.57,116,134.22,116.31Z"/><path class="cls-25" d="M184.26,127.85h.55c1.06-.93,2.36-.78,3.63-.79,5.36,0,10.72.14,16.08-.09a1.52,1.52,0,0,1,1.19.88,2.55,2.55,0,0,1-2.39,1.11q-8.61,0-17.22,0C185.23,129,184.52,128.82,184.26,127.85Z"/><path class="cls-26" d="M128.72,102.56h2.75c2.23,1.33,2.51,3.33.89,6.5a1.71,1.71,0,0,1-1.23.36,3.2,3.2,0,0,1-2-.36c.08-1.16-1.48-2.63.42-3.63C128.37,104.9,128.36,103.8,128.72,102.56Z"/><path class="cls-27" d="M128.72,102.56a3.11,3.11,0,0,1,.54,2.43c.22.53.92.08,1.08.63-.39.54-1.05,0-1.5.4-.07.72.74.13.87.55.56.9-.44,1.57-.5,2.31.64.44,1.2.21,1.71.28.18.12.24.24.18.37s-.12.18-.18.18h-2.2c-1.23-.41-2.11-.69-2-2.58.09-1.39-1.07-3-1.3-4.57Z"/><path class="cls-16" d="M132,109.16c-.09-1,.73-1.73.58-2.76a21,21,0,0,1,0-3c-.14-.6-1.2,0-1.1-.87h2.75c1.06.62.93,2,1.79,2.77-.44,1.29,1.13,2.74-.63,4A7.58,7.58,0,0,1,132,109.16Z"/><path class="cls-28" d="M216.7,115.21c-.89-1-1.8-1.95-2.66-3-.35-.41-.76-.33-1.19-.34a2.76,2.76,0,0,0-2.44-1.62,1.69,1.69,0,0,1-1.39-1.05h5.84l1.28,1.28C216,112.13,217.13,113.57,216.7,115.21Z"/><path class="cls-29" d="M125.43,102.56c.23.84,1.06,1.17,1.69,2l-.37,2.22.79.32c0,.72-.82.07-1,.57.07.64.83.09,1,.6l-.49.56a1.51,1.51,0,0,0,.39.27c.43.15,1.14-.35,1.23.56h-3.84a2.67,2.67,0,0,1-.45-.61c0-2.2-.86-4.32-.65-6.54Z"/><path class="cls-30" d="M132,109.16h3.73c.08-.93-.77-.25-.9-.79.25-.8,1.17.11,1.51-.53-.28-.81-1.19.08-1.53-.54.08-.64.84-.09,1-.57-.14-.57-.85-.1-1-.57.14-.58,1.19,0,1.08-.85a2.66,2.66,0,0,1,0-2.75h.55c.08.61.66.82,1.17,1.51,0,.72-.36,1.93.09,2.62s-1,1.72.36,2.16c-.11.32-.61.41-.52.86h-6.6v-.55Z"/><path class="cls-31" d="M104.53,109.16c-.54.21-1.39-.51-1.65.55h-.55c-1.63-1-.44-2.66-.81-3.95.36-2.37,2.24-2.78,4.11-3.2h2.63c.38,0,.71,0,.67.55-.19,1.07-1,.5-1.52.52-.93,0-1.8,0-2.38.89-.36.56-1,0-1.52.43l.38.72c-.19.3-.49.15-.65.18-1.27.72.73,1.75-.34,2.46C103.19,109.08,104.44,108,104.53,109.16Z"/><path class="cls-3" d="M115.53,123.46c-.6,0-1,1.2-1.77.17-.3-.41-.86,0-1.25-.19-.74-.29-1,1-1.63.53a1.76,1.76,0,0,0-1.4-.51l-.34-.36a6.9,6.9,0,0,1,.34-5.69,26.44,26.44,0,0,1,4.6-.51,1.56,1.56,0,0,1,1.45,1.06c0,.82.68.46,1.1.55a.89.89,0,0,1,0,.73c-.69,1-1.48.79-2.3.19-.2-.14-.38-.29-.56-.44a2.71,2.71,0,0,0-2.84,0,3.61,3.61,0,0,0-.19.64,4.69,4.69,0,0,0,.17,2.14,2.85,2.85,0,0,0,3.13,0,2,2,0,0,1,1.5-.31c.4.17.7.4.54.9Z"/><path class="cls-32" d="M110.58,115.76h-1.09c-1.1,0-2.19,0-3.28,0s-1.76-.85-2.78-.56l-.55-1.1a1.76,1.76,0,0,1,1.29-.57,4.45,4.45,0,0,1,.73,0,3.43,3.43,0,0,1,.71.14,2.42,2.42,0,0,1,.57.44h1.1c.37-.37.26-.85.28-1.3a1.91,1.91,0,0,1,.2-1,.48.48,0,0,1,.62.12c.52,0,.52.31.56.68a.43.43,0,0,0,.54.42,5.71,5.71,0,0,0,.55.55c.07.33-.18.74.18,1S110.58,115.32,110.58,115.76Z"/><path class="cls-5" d="M205.71,127.85c-.39,0-.57-.17-.55-.55a3.4,3.4,0,0,1-.85-2.8c.05-6.22-.06-12.45,0-18.67a4,4,0,0,1,.45-1.85.67.67,0,0,1,.91-.32Z"/><path class="cls-33" d="M115,109.16h-2.2c.18-1.24,1-2.42.41-3.72-.45-.36-1.1.16-1.49-.39l.53-.58c-.88-.53-2.2-.19-2.75-1.36.58-.08,1-.82,1.65-.55C115.12,103.57,116.51,106,115,109.16Z"/><path class="cls-34" d="M118.28,109.16h-1.65c-.25-.26-.66-.52-.63-.85.26-2.47-1.46-4-2.67-5.75h2.75C118.78,104.34,119.32,106,118.28,109.16Z"/><path class="cls-35" d="M205.71,103.66h-.55c-5.07.6-10.15.16-15.22.23-1.7,0-3.45.45-5.13-.23a.47.47,0,0,0-.55-.55c0-.54.33-.55.71-.55,6.39,0,12.77,0,19.16,0A1.43,1.43,0,0,1,205.71,103.66Z"/><path class="cls-36" d="M139.17,129v-5.49h-4.95a.41.41,0,0,0-.4-.54c-.77,0-1.54,0-2.42,0,.89-1.68,2.26-.91,3.37-1.1a9,9,0,0,1,3.18-.25,1.05,1.05,0,0,1,.67.8c-.05.72.6.44,1.1.75,0,1.73,0,3.58,0,5.43A.41.41,0,0,1,139.17,129Z"/><path class="cls-37" d="M113.33,102.56c0,.91.92.61,1.36,1,1.08.9,2,1.69,1.5,3.26.82.35-.29.84.07,1.14s.37.78.37,1.22H115c.08-.45-.4-.54-.55-.9l.95-.32c-.6-.47,0-1.48-.12-1.46-1.08.2-.63-.92-1.12-1.19s-.15-.39,0-.57l.23-.22c-.61-.29-1.3-.49-1.62-1.11s-1.56.32-1.67-.83Z"/><path class="cls-38" d="M118.28,109.16c.23-.44-.67-.51-.22-1.3.75-1.29-.16-2.65-.83-3.85-.3-.54-1-.76-1.15-1.45h1.65c2.59,1.67,3.15,3.93,1.65,6.6Z"/><path class="cls-39" d="M119.38,109.16c-.37-.66,1-1.29,0-2,1.17-.32-.89-1.42.48-1.57-.26-.54-.81-.07-1-.61l.42-.5c-.1-.58-.83-.08-1-.57l.51-.56c-.14-.55-1.18,0-1.08-.83h1.65c2.35,1.73,2.9,3.92,1.65,6.6Z"/><path class="cls-40" d="M134.77,121.26c0-.56-.55-.67-.75-1.05l-.86.57c-1.32-.53-1.23-1.56-1.06-2.73h3c.28.42.27,1.4,1.33,1a.72.72,0,0,1,.17.61,3.31,3.31,0,0,1-.51.87C135.7,120.88,135.53,121.6,134.77,121.26Z"/><path class="cls-41" d="M120.48,102.56h1.65c2,1.7,2.5,3.93,1.43,6.83a2.84,2.84,0,0,1-1.55-.15A20.76,20.76,0,0,0,120.48,102.56Z"/><path class="cls-42" d="M123.78,109.16c-.78-.52.21-1.46-.49-2,.09-2.83,0-3-1.16-4.61h1.65c0,.47.89.92,0,1.44l1,.33c0,.46-.32.86.1,1.39.26.33,0,1,0,1.57v1.87A.76.76,0,0,1,123.78,109.16Z"/><path class="cls-26" d="M123.23,116.31c.54-.21,1.39.51,1.65-.55.91.76,2,.54,3,.53a7.93,7.93,0,0,1,1.27-1.05.47.47,0,0,1,.69.52c.25.48,1.43,0,1.1,1.1,0,.5-.3.55-.67.55h-3.72c-1-.64-2.19,0-3.24-.38A.47.47,0,0,1,123.23,116.31Z"/><path class="cls-43" d="M130.92,116.86a.42.42,0,0,0-.41-.54c-.37,0-.73,0-.69-.56h3.73c.37,0,.71,0,.67.55h-2.17c2.34.69,5.44.87,7.12,0v.8c-.31.47-.8.29-1.21.29-2.06,0-4.13,0-6.19,0C131.47,117.38,131.37,116.78,130.92,116.86Z"/><path class="cls-44" d="M120.48,102.56a4.15,4.15,0,0,1,1.6,3c0,.66.57,1.39.34,1.8a4.14,4.14,0,0,0-.29,1.77.76.76,0,0,1-1.1,0c.13-.84-.38-1.82.57-2.54l-1-.35c1.14-1.76-.79-2.49-1.23-3.71Z"/><path class="cls-45" d="M136.42,119.61v-.55c0-.51.31-.54.68-.56.83,0,1.72.24,2.62-.72,0,1.36,0,2.49,0,3.62a.42.42,0,0,1-.54.41C138.51,120.76,136.9,120.89,136.42,119.61Z"/><path class="cls-46" d="M101.78,105.31V109c0,.38,0,.72.55.68.27,1-.6,1.76-.65,3.1-.2-.78,0-.23-.3-.48a.36.36,0,0,1-.14-.21c0-3.15,0-6.3,0-9.56a2.82,2.82,0,0,1,.54.29s0,.17,0,.26A1.67,1.67,0,0,1,101.78,105.31Z"/><path class="cls-47" d="M123.23,116.86h2.63c.37,0,.7,0,.67.55H116.08c-.06-1.13.81-.7,1.36-.82C119.37,116.73,121.32,116.29,123.23,116.86Z"/><path class="cls-26" d="M126,121.26a2.76,2.76,0,0,0-2.62-.42c-.36.46.15,1.1-.54,1.61a22.93,22.93,0,0,1-.14-3.94c.73-.49,1.56-.18,2.34-.27,1,.05-.38,1.75,1,1.56C126.83,120.34,126.71,120.82,126,121.26Z"/><path class="cls-48" d="M116.08,122.36c0-.38-.17-.57-.55-.55-.43-.49-.27-.9.17-1.27s1.68.11,1-1.17l-.09-.31v-.55a1.56,1.56,0,0,1,1.85,0c.88,1.32.19,2.56-.2,3.81Z"/><path class="cls-49" d="M134.77,121.26c.52,0,.52-.32.56-.69a.43.43,0,0,1,.54-.41c.77.5,2.67-.51,2.2,1.65l-2.87.55c-.28-.08-.49-.21-.43-.55Z"/><path class="cls-50" d="M127.62,118.51c1,0,2,0,3,0,.07,0,.13.09.34.24-.84.64-1.83,0-3,.61l1.3.37c-.16,1.21-1.3.76-1.12,1.67.08.37.21.95-.53,1A3.34,3.34,0,0,1,127.62,118.51Z"/><path class="cls-51" d="M127.62,118.51v3.85c-.47,0-1.14.24-1.11-.68a.41.41,0,0,0-.53-.42,4.3,4.3,0,0,1,.32-.6c.35-.48,0-.46-.32-.5-.26-.39-.06-.69.21-1l.34-.14Z"/><path class="cls-52" d="M117.18,116.86c-.42.08-1.06-.28-1.1.55a.47.47,0,0,1-.55.55l-1.1-.55c-.62-.63-1.57,0-2.2-.55,0-.51.3-.55.68-.55h4.27q.27.18.18.36C117.3,116.8,117.24,116.86,117.18,116.86Z"/><path class="cls-37" d="M101.78,105.31v-2.2c.78.26,1.2-.66,2-.56a17.19,17.19,0,0,0,1.9,0,.41.41,0,0,1-.43.54,3.12,3.12,0,0,0-2.77,1.82C102.3,105.12,102.13,105.4,101.78,105.31Z"/><path class="cls-53" d="M138.07,121.81V121c-.52-.53-1.19-.14-1.77-.27-.28-.06-.49-.2-.43-.54s.17-.57.55-.55a3.87,3.87,0,0,0,2.75.53v1.67c0,.38-.17.56-.55.55A.47.47,0,0,1,138.07,121.81Z"/><path class="cls-54" d="M135.87,102.56c0,.27-.1.7,0,.78,1.08.69.25,1.32,0,2a1.37,1.37,0,0,1-1.55-.83c1-.63.23-1.27-.1-1.92Z"/><path class="cls-55" d="M237.05,120.71c-.27-.78.65-1.2.56-1.95a17.2,17.2,0,0,1,0-1.9c.74,0,.47.57.55,1s-.36,1.15.55,1.24c-.57.41-.17,1.47-1.1,1.65Z"/><path class="cls-56" d="M118.28,122.36v-3.85c.43-.39.94-.24,1.44-.24a.63.63,0,0,1,.41.54c-.11.59-.57,1-.71,1.6a2.29,2.29,0,0,1-.59.85C118.74,121.67,119.1,122.31,118.28,122.36Z"/><path class="cls-57" d="M119.93,118.51h-3.3a.42.42,0,0,1,.43-.54q1.77,0,3.54,0a.42.42,0,0,1,.43.54A.78.78,0,0,1,119.93,118.51Z"/><path class="cls-51" d="M125.43,118.51h-2.75a.41.41,0,0,1,.42-.54c1.08,0,2.16,0,3.13,0,.46.37.23.76.3,1.1C125.92,119.34,125.67,118.94,125.43,118.51Z"/><path class="cls-58" d="M118.83,121.26v-1.1a1.35,1.35,0,0,1,1.47-.34,1.17,1.17,0,0,1,.73.89c0,.47-.27.55-.65.55S119.34,121.26,118.83,121.26Z"/><path class="cls-59" d="M121,120.71c-.38,0-.57-.17-.55-.55s-.46-.69-.55-1.1v-.55H121A1.37,1.37,0,0,1,121,120.71Z"/><path class="cls-60" d="M104,111.36c0-.68.53-.69.89-.44s.78.45.76,1c-.23.24-.34.6-.71.7C104.1,112.58,104.41,111.69,104,111.36Z"/><path class="cls-61" d="M105.08,112.46c0-.38.17-.57.55-.55-.27.7.47,1.06.55,1.65-.16.2-.37.36-.55.55h-.55a1,1,0,0,1,0-1.65Z"/><path class="cls-37" d="M107.83,111.91V113c-.18.25-.37.25-.55,0v-2.2h1.1v.55C108.19,111.53,108.06,111.77,107.83,111.91Z"/><path class="cls-62" d="M105.08,112.46V113a1.29,1.29,0,0,1-1.59.19.47.47,0,0,1-.06-.74c.82,0,.47-.68.55-1.1a.43.43,0,0,1,.54.42C104.56,112.14,104.56,112.5,105.08,112.46Z"/><path class="cls-63" d="M104.53,114.11h-1.65v-.55a1,1,0,0,1,.72-.27C104.09,113.36,104.77,113.21,104.53,114.11Z"/><path class="cls-64" d="M103.43,113.56h-.55c-.27,0-.59-.13-.43-.34s.45-.79,1-.76V113c.19.12.26.24.19.36S103.5,113.56,103.43,113.56Z"/><path class="cls-65" d="M107.28,113h.55c-.08.41.27,1-.55,1.1Z"/><path class="cls-64" d="M105.63,114.11c0-.38.17-.57.55-.55v.55Z"/><path class="cls-66" d="M177.9,20.63c1.53,0,3.07-.05,4.61,0,3.09.12,4.82,2.06,4.47,5.13a12.29,12.29,0,0,1-.87,2.63c-.79,2.15-2.69,2.84-4.64,3.18a35.67,35.67,0,0,1-4.63.07c-.68,0-.93-.46-1.43-.88.21-.75.82-1.49.6-2.39-.28-1.19.87-2.15.54-3.32s.56-2.19.56-3.33C177.11,21.17,177.67,21.06,177.9,20.63Z"/><path class="cls-67" d="M68.09,20.63c.85,0,1.86,0,2.86,0,2.43-.13,4.57.4,6.09,2.57,0,.84-.05,1.76,0,2.67a5.6,5.6,0,0,1-5.89,5.78c-1.63-.09-3.27,0-4.88,0-1-2,.7-3.84.31-5.78C67.62,24.27,66.55,22.14,68.09,20.63Z"/><path class="cls-66" d="M96.84,41.76a6.77,6.77,0,0,1,1.69-5.33,8.81,8.81,0,0,1,5.76-3.08,6.17,6.17,0,0,1,5.4,2.09A5.48,5.48,0,0,1,110.83,41c-.94,3.34-3.13,5.24-6.32,6.34-1.77.6-3.28-.09-4.82-.57a4.2,4.2,0,0,1-2.56-2.42C96.69,43.46,97,42.61,96.84,41.76Z"/><path class="cls-3" d="M217.53,33.83c.45.45.89.92,1.36,1.35a5.36,5.36,0,0,1,1.71,4A7.36,7.36,0,0,1,217.34,46c-4.22,2.88-8.85,1.81-10.68-2.15a2.4,2.4,0,0,1-.42-.93c-.31-3.74,1.39-6.47,4.3-8.56,1-.68,3.39-.83,4.8-.58A13.33,13.33,0,0,0,217.53,33.83Z"/><path class="cls-68" d="M145.77,116.86c-.09,0-.25,0-.26,0-.23-.65.46-1.14.29-1.84a4.2,4.2,0,0,1,0-1.9,7.79,7.79,0,0,1,.87-1.82c2.35-4.17,7.08-6.24,11.77-4,.92.43,1.82.89,2.73,1.34.51.81,2.29.87,1.48,2.48a1.62,1.62,0,0,1-1,.22c.69.15,1.51-.06,2,.73.2,1.27-.72,1.45-1.61,1.61a21.13,21.13,0,0,0-2.63.28l-.66.42a4.45,4.45,0,0,1-1.41.57,10,10,0,0,0-2.89.12,9.21,9.21,0,0,1-2.55-.38,5.75,5.75,0,0,0-2.82-.23c-1.87-.16-1.4,2-2.56,2.56A.63.63,0,0,1,145.77,116.86Z"/><path class="cls-69" d="M162.82,110.81c-.29-1.17-1.33-1.14-2.29-1.18.26-.48.71-.58.64-1a9.64,9.64,0,0,1,7-2.2,10.91,10.91,0,0,1,5.14,2A6.84,6.84,0,0,1,176,113a5.26,5.26,0,0,1-1.6,1.16,5.45,5.45,0,0,1-3.89,1c-1-.22-2.1-.41-3.15-.61a4.88,4.88,0,0,0-3.07-.06,4.09,4.09,0,0,1-1.26,0c-1.51-.5-3.27.25-4.62-1,0-.54.33-.55.7-.55h3.95c.47-.37.23-.77.3-1.1C163.06,111.6,162.47,111.44,162.82,110.81Z"/><path class="cls-70" d="M145.77,116.86h.55a2.25,2.25,0,0,0,2.7-.15c.89-.08,1.49.71,2.34.76,2.34,0,4.67,0,7,0a2,2,0,0,1,1.39,1.09c1,.82,2.6-.12,3.65,1.17-.1,1.19-1,1.42-2,1.41.39.63.77,1.26-.21,1.73a19.73,19.73,0,0,0-2.26,1.11,7.28,7.28,0,0,1-6.42.6c-3.87-1.13-5.19-3-6.55-5.66C145.59,118.26,145.9,117.55,145.77,116.86Z"/><path class="cls-71" d="M161.17,122.91c-.09-.45.39-.54.52-.86l-.78-.77-.56.5c-.34-.22-.35-.54-.18-.93.93-.56,2.51.58,3.16-1.25h-4.24c-.07-.52.16-.56.43-.54a2.66,2.66,0,0,1,1.47-1,10.67,10.67,0,0,0,2.3-.87,1.83,1.83,0,0,1,.7,0,7.64,7.64,0,0,0,2.65.69,17.86,17.86,0,0,0,3.1-.37c.62-.23.9-.89,1.67-1.28,1.07,1.51,3.11.85,4.48,2l.12.36c-.39,3.4-2.78,5-5.63,6C167,125.83,164,125,161.17,122.91Z"/><path class="cls-72" d="M174.36,113.56c.26-1.06,1.11-.34,1.65-.55.09,0,.26,0,.26,0a10.65,10.65,0,0,1,0,5.49s-.17,0-.26,0C174.45,117.19,175.23,115.1,174.36,113.56Z"/><path class="cls-73" d="M168.68,71.3,170,72.61c0,1.6.18,3.25-1.81,4.14a5,5,0,0,1-4.77-.06,3.74,3.74,0,0,0,.51-2.84c0-.91,1-1.5.45-2.55Z"/><path class="cls-3" d="M96.28,125.39l-1.36,1.31H54.72a4.47,4.47,0,0,1-1.35-3.65c.05-5.58,0-11.16,0-16.66l2.25-2.12H94.92l1.36,1.35Z"/><path class="cls-74" d="M115,110.81h2.2a2.15,2.15,0,0,1,.76,3.25c-.67,1.09-1.78,1.1-2.85.44A3.19,3.19,0,0,1,115,110.81Z"/><path class="cls-75" d="M124.88,113.56c-.92.22-.56,2-2.2,1.55V112.6c0-.38,0-.73-.55-.69a.44.44,0,0,1,0-.55,2,2,0,0,1,2.75,0A2.14,2.14,0,0,1,124.88,113.56Z"/><path class="cls-76" d="M131.47,114.11a.42.42,0,0,0,.54-.43c0-.89,0-1.78,0-2.64a1.5,1.5,0,0,1,2.18.59c.1.86-.38.84-.88.85-.54.77.33,2.07-1,2.6-.18-.66-1.3,0-1.4-1l.28-.23Z"/><path class="cls-77" d="M135.15,115.36l-.92-1.75c0-.81.66-.46.94-.72.43-.61-.14-1.41.37-2h1C136,112.37,137.38,114.24,135.15,115.36Z"/><path class="cls-78" d="M115,114.11c.86.55,1.71,1,2.71-.3a4.06,4.06,0,0,0-.51-3h1.1a2.36,2.36,0,0,1,.63,1.68,7.83,7.83,0,0,1-.63,2.17.42.42,0,0,1-.43.54q-1.77,0-3.54,0a.42.42,0,0,1-.43-.54A1.3,1.3,0,0,1,115,114.11Z"/><path class="cls-79" d="M112.78,114.66c-.45-.08-.54.39-.85.53-.58-.58,0-1.37-.33-2-.38-.33-1.42-.1-.93-1.12.2-.4,1,.08,1-.6,0-.37,0-.72.55-.68C113.57,111.93,113.06,113.31,112.78,114.66Z"/><path class="cls-80" d="M118.28,112.46v-1.65h3.18c.37,0,.7,0,.67.55v.55c-.08.58-.82,1-.55,1.65-.38,0-.57-.17-.55-.55a1.36,1.36,0,0,0-2.1-.38A.63.63,0,0,1,118.28,112.46Z"/><path class="cls-81" d="M129.82,111.91a1.35,1.35,0,0,1,1.1,1.65c.14.12.19.24.14.36s-.09.19-.14.19h-3.16c-.17-.62-.29-1.06.41-1.1l.49-.46A4.69,4.69,0,0,1,129.82,111.91Z"/><path class="cls-65" d="M115,114.11c0,.82-.69.46-1.1.55v-3.57c.39-.43.77-.22,1.1-.28.14.83-.4,1.79.51,2.49C115.54,113.34,114.9,113.67,115,114.11Z"/><path class="cls-82" d="M118.83,112.46v-.85c.63-.45,1.33-.22,2-.19.36.52.13,1.07.2,1.59h-1.1A1.2,1.2,0,0,1,118.83,112.46Z"/><path class="cls-74" d="M112.78,114.66a10.93,10.93,0,0,1,0-1.9,3,3,0,0,0-.57-2h1a38.35,38.35,0,0,1,.12,4.29C112.81,115.14,112.76,114.93,112.78,114.66Z"/><path class="cls-83" d="M124.88,113.56v-2.2h.85c.3.59-.45,1-.36,1.58s.93.74.53,1.56C125,114.94,124.81,114.43,124.88,113.56Z"/><path class="cls-44" d="M118.83,112.46c.41.08,1-.27,1.1.55l-1.65,1.65v-2.2Z"/><path class="cls-39" d="M121,109.16h3.85v.55H121Z"/><path class="cls-84" d="M129.82,111.91c.17.9-.2,1.26-1.1,1.1a1,1,0,0,1-.22-1c.17-.33.52-.45.77-.68a.39.39,0,0,1,.55,0Z"/><path class="cls-59" d="M129.27,111.36c0,.38-.16.56-.55.55-.18.27-.36.27-.55,0C128.22,111.09,128.86,111.44,129.27,111.36Z"/><ellipse class="cls-26" cx="128.45" cy="112.46" rx="0.39" ry="0.78"/><path class="cls-74" d="M110,113.56a.47.47,0,0,1-.55-.55C109.86,113,110,113.18,110,113.56Z"/><path class="cls-59" d="M129.82,111.36h-.55c0-.27,0-.51.37-.44C129.73,110.94,129.76,111.21,129.82,111.36Z"/><path class="cls-85" d="M107.83,111.91c0-.38.17-.57.55-.55v.55Z"/><path class="cls-26" d="M130.92,114.11v-.55a.46.46,0,0,1,.55.55Z"/><path class="cls-86" d="M121.58,113.56a.38.38,0,0,1,.49.33s-.12.17-.17.16A.38.38,0,0,1,121.58,113.56Z"/><path class="cls-87" d="M243.83,114.05c.66.54,1.1,1,.92,1.73-.15.57.16,1,.6,1.51h-2.71C243,116.24,243.39,115.23,243.83,114.05Z"/><path class="cls-59" d="M101.78,123.46v-3.85c2.46-.79,4.83-.07,7.22.44.54,1.08-.2,2.34.48,3.41.06.33-.14.48-.42.54-1.77.42-3.51-.68-5.31-.11-.26.08-.76-.61-1.15-1C102.32,123.06,102.23,123.54,101.78,123.46Z"/><path class="cls-17" d="M122.68,128.4c.74-.59.75-.54,1.87-.61.45,0,.27-.53.39-.85.5-.4.57.58,1,.36l1.12-.55c-.26.71.48,1.07.55,1.65Z"/><path class="cls-88" d="M108.93,120.16c-.75-.13-1.63.5-2.08.27a3.39,3.39,0,0,0-2-.24c-1.09.07-1.93-.87-3-.58V116.8c1,.13,1.73.75,2.65.65a7.29,7.29,0,0,1,2.35.16,6.64,6.64,0,0,0,2.15.35A2.17,2.17,0,0,1,108.93,120.16Z"/><ellipse class="cls-89" cx="120.2" cy="116.58" rx="4.28" ry="0.39"/><path class="cls-78" d="M108.93,120.16V118c0-.38.17-.57.55-.55v6c-.5,0-.55-.3-.55-.67Z"/><path class="cls-78" d="M112.23,116.86h1.55c.38,0,.68.07.65.55h-5c0-.49.28-.55.66-.55Z"/><path class="cls-90" d="M184.81,103.66a4.28,4.28,0,0,1,2-.58q8.22.09,16.42,0a4.32,4.32,0,0,1,2,.58V127.3a3.5,3.5,0,0,1-2.52.56H184.81Z"/><path class="cls-26" d="M110,122.36v-3.3a.77.77,0,0,1,.69-.2c2,.11,2.18,2.18,3.36,3.18a.67.67,0,0,1-.53.57C112.37,122.5,111.17,122.9,110,122.36Z"/><path class="cls-91" d="M113.88,122.36v-.55c-.39-.75.23-1.42.17-2.14a1.22,1.22,0,0,1,.38-.61,1.59,1.59,0,0,0,2.2,0c.57.8.15,1.27-.55,1.65-.82,0-.47.68-.55,1.1-.42.08-1.06-.28-1.1.55A.34.34,0,0,1,113.88,122.36Z"/><path class="cls-92" d="M114.43,119.06v.55a5.9,5.9,0,0,1-3.85-.55H110v-.55a7.67,7.67,0,0,1,4.4,0Z"/><path class="cls-78" d="M114.43,118.51H110a.42.42,0,0,1,.43-.54q1.77,0,3.54,0A.42.42,0,0,1,114.43,118.51Z"/><path class="cls-78" d="M113.88,122.36h.55a.41.41,0,0,1-.43.53q-1.77,0-3.54,0a.41.41,0,0,1-.43-.53Z"/><path class="cls-93" d="M103.43,113.56V113h1.65v1.1h-.55C104.48,113.29,103.85,113.64,103.43,113.56Z"/><path class="cls-94" d="M125.43,118.51l1.1.55-.55,1.1h-2.65l-.1-.81C123.79,118.51,125.07,119.78,125.43,118.51Z"/><path class="cls-57" d="M116.08,120.71c.08-.59.82-.95.55-1.65h.93a8.33,8.33,0,0,1,.16,2.76C117,121.62,116.75,120.75,116.08,120.71Z"/><path class="cls-95" d="M119.93,119.06c.39.07.95-.25,1.08.41.07.36,0,.73-.53.69h-1.65C118.66,119.26,119,118.89,119.93,119.06Z"/><path class="cls-96" d="M158.42,118c-.63-.33-1.13.71-1.56.3-.74-.69-1.06,0-1.57.22-.16.08-.47-.11-.69-.23a2,2,0,0,0-2.43.13c-.33.29-.86.27-.9-.42-1.87-1.58-1-2.76.55-3.85,1-.28,1.78.64,2.75.55.91-.88,1.83.49,2.75,0,0-.82.68-.47,1.1-.55a1,1,0,0,1,.8.82A4.12,4.12,0,0,1,158.42,118Z"/><path class="cls-97" d="M149.07,116.86v.82c-.52.62-1.58-.15-1.94.8-.56-.46-1-.89-.81-1.62.79-.93.47-2.09.56-3.08.93-.61,1.53,0,2.19.33A3.55,3.55,0,0,1,149.07,116.86Z"/><path class="cls-98" d="M149.07,116.86c.31-.62-.66-1.07-.32-1.54a1.88,1.88,0,0,0,.32-1.21c.57-.91,1.36-.6,2.11-.34.22.07.32.42.64.34a2,2,0,0,1-.62,1.31c-.9,1-.42,1.71.07,2.54C150.26,118,150.26,118,149.07,116.86Z"/><path class="cls-99" d="M159,114.66c-.38,0-.57-.17-.55-.55v-.55h4.27c.37,0,.71,0,.68.55-.35.8-.61,1.68-1.68,1.83A6.56,6.56,0,0,1,159,114.66Z"/><path class="cls-100" d="M162.82,110.81l.55,1.1H159a1.45,1.45,0,0,1,1.65-1.11C161.36,110.85,162.09,110.81,162.82,110.81Z"/><path class="cls-101" d="M157.32,114.66c-.07.39.22.92-.38,1.08-.2.05-.66-.14-.66-.22,0-1.43-1.1-.68-1.71-.86.57-.91,1.36-.6,2.11-.34C156.9,114.39,157,114.74,157.32,114.66Z"/><path class="cls-102" d="M174.36,113.56H176c-1,1.77-.44,3.36,0,5-.92-.65-1.85-.89-2.68.1a4.48,4.48,0,0,1-2-2.34c-.41.77,0,1.87-1.14,2.16-.34.09-.55-.16-.19-.22,0,0,0-.16,0-.25-.87-1.28-.36-2.32.55-3.3C172,115,173.15,114.18,174.36,113.56Z"/><path class="cls-103" d="M170.51,114.66c.28,1.17-.83,2.12-.55,3.3-.47-.26-.56.84-1,.34s-.65.17-1,.2-.88,0-1.33,0a2.78,2.78,0,0,1-.85-1.18c-.18-.93.54-1.56.78-2.35a1.77,1.77,0,0,1,.62-.87C168.34,114.15,169.52,113.85,170.51,114.66Z"/><path class="cls-104" d="M166.12,117.41c.82,0,.46.68.54,1.1a2.67,2.67,0,0,1-2.74-1.1c-.28-.25-.7-.34-.83-.74-.23-1.23.66-1.84,1.38-2.56a1.88,1.88,0,0,1,2.74,0v1.1C166.18,115.61,165.06,116,166.12,117.41Z"/><path class="cls-105" d="M164.47,114.11a1.26,1.26,0,0,1-.55,1.37,1.25,1.25,0,0,0-.55,1.38q.23.18.15.36c-.05.13-.1.19-.15.19-.31,1.21-1.27,1.14-2.2,1.1-.79-1.11-.42-2,.55-2.75.52,0,.59-.33.54-.7-.14-.93.38-1,1.11-1Z"/><path class="cls-106" d="M161.72,115.76c.09,1-.84,1.74-.55,2.75-.59.08-.95.82-1.65.55a1.35,1.35,0,0,0-1.1-1.1c0-1.13-.26-2.31.55-3.3C160,114.77,161.28,114.19,161.72,115.76Z"/><path class="cls-107" d="M163.37,117.41v-.55c.38,0,.56.17.55.55Z"/><path class="cls-108" d="M56.23,113.05h4.06c.49.3-.07,1.06.82,1.1L60,116.28c-.15.51,1,.79.49,1.48a.54.54,0,0,1-.74.15c-.31-.29-.76-.49-.82-1-.15-1.09-.92-.48-1.64-.53v2.09h-1Z"/><path class="cls-109" d="M71,113c1.21,1.58,1.21,1.58,3.19,1.72v3.73h-1v-3.28c-1.17.06-1.59.52-1.66,1.51-.05.61.54,1.48-.52,1.82A11.62,11.62,0,0,1,71,113Z"/><path class="cls-109" d="M90.78,114.66c.21-.88.69-.67,1.13-.24.62.61.94.07,1.43-.39a7.22,7.22,0,0,1,.18,2.68c0,.9,0,1.8-.09,2.7,0,.08-.29.13-.45.2-.86.36-1-.44-1.44-.85a1.89,1.89,0,0,1-.37-1.38c.29-.59.63-1.19,0-1.81A1.72,1.72,0,0,1,90.78,114.66Z"/><path class="cls-110" d="M78.14,115.21c-.75-.21-1.17.28-1.67.86v2.15c-.29.39-.57.26-.83.27-.08-.15-.24-.29-.24-.44,0-.72,0-1.45,0-2.17,0-1.08,0-1,1.63-1.5.65-.19,1.25-.71,1.67.28A.66.66,0,0,1,78.14,115.21Z"/><path class="cls-111" d="M87.48,115.21h-.9c-.48,1,0,2.1-.29,3.11-.2.3-.49.16-.87.18v-4.33c.7-.1,1.47.6,2.21,0,.12-.1.47.18.4.53A.63.63,0,0,1,87.48,115.21Z"/><path class="cls-112" d="M90.78,114.66a.46.46,0,0,1,.55.55,5.43,5.43,0,0,1,0,2.2l.55,1.1c-.17,1.32-.91.92-1.65.55.1-1-.82-1.82-.59-2.93C89.8,115.37,90,114.86,90.78,114.66Z"/><path class="cls-113" d="M83,118.16c-2.24.35-2.61.12-2.66-1.37,0-.82,0-1.63,0-2.38.21-.34.49-.3.91-.3.48,1,0,2.07.51,2.8Z"/><path class="cls-114" d="M82.45,118c1.14-1.11.31-2.59.84-3.91,1.6,1.34.62,3,.86,4.3C83.25,118.88,83.1,117.87,82.45,118Z"/><path class="cls-12" d="M63.29,116.31v1.1c-.22.48-.48.87-1.1.55-.9-1.34-.76-2.19.55-3.3C64.06,114.83,63.66,115.57,63.29,116.31Z"/><path class="cls-112" d="M63.29,116.31c-.21-.54.51-1.39-.55-1.65.24-1,1.07-.67,1.45-.4A2.49,2.49,0,0,1,65.53,116C64.87,116.6,64,116.17,63.29,116.31Z"/><path class="cls-115" d="M78.14,115.21a.46.46,0,0,1,.55-.55.42.42,0,0,1,.54.41c0,1.07,0,2.14,0,3.13-.22.35-.49.3-.92.31A12.53,12.53,0,0,1,78.14,115.21Z"/><path class="cls-116" d="M67.69,115.21c-.48,0-.55.27-.55.64v1.56c.14.51,0,.75-.55.55-.9-1.34-.76-2.19.55-3.3C67.72,114.45,67.81,114.72,67.69,115.21Z"/><path class="cls-117" d="M71,113v5.5c-.09,0-.26,0-.26,0a10.65,10.65,0,0,1,0-5.49S70.9,113,71,113Z"/><path class="cls-118" d="M90.23,119.06c.55-.21,1.4.51,1.65-.55.52,0,.52.31.56.68a.44.44,0,0,0,.54.42c-.54,1.19-1.57.28-2.33.54-.06,0-.15-.05-.24-.09C90.07,119.78,90.3,119.39,90.23,119.06Z"/><path class="cls-119" d="M87.48,115.21c0-.38.17-.57.55-.55.16.06.44.12.44.18,0,1.2,0,2.41,0,4.19C87.73,117.46,88.46,116.1,87.48,115.21Z"/><path class="cls-111" d="M67.69,115.21c0-.38-.17-.57-.55-.55.23-1,1-.63,1.45-.41a5.51,5.51,0,0,1,1.31,1.25C69,116.28,68.49,114.74,67.69,115.21Z"/><path class="cls-120" d="M62.19,118l1.1-.55c.77-.13,1.27.21,1.7,1.18C64,118.22,63,119.11,62.19,118Z"/><path class="cls-121" d="M66.59,118a.47.47,0,0,0,.55-.55c.49.08.87.66,1.51,0,.32-.31.82.13.61,1C68.4,118.34,67.42,119.06,66.59,118Z"/><path class="cls-122" d="M195.26,121.81c-1.83,0-3.65,0-5.48,0a4.06,4.06,0,0,1-3.28-1V105.28c2.66-1.08,5.48-.25,8.21-.52-.42,3.16,0,6.39-.71,9.53-.5,1.07-1.69.71-2.47,1.19a1,1,0,0,0-.29.74c.43-.13.53-.66,1-.79a1.51,1.51,0,0,1,1.52.32C194.56,117.69,194.46,119.86,195.26,121.81Z"/><path class="cls-123" d="M196.36,104.76h7.08c0,1,.05,2.12.06,3.18s0,2.17,0,3.34h-4.23c-.47-1,.09-2.08-.32-3.16a1.5,1.5,0,0,0-1,1.61c0,2.66,0,5.31,0,7.94.19.29.46.3.9.28.5-1,0-2.06.27-3.18h4.27v7h-7.09c-1.32-1.83-.69-3.91-.79-5.9,0-.51,0-1,0-1.52C195.79,111.17,194.73,107.86,196.36,104.76Z"/><path class="cls-107" d="M196.36,104.76v9.9a2.07,2.07,0,0,1-2.44.3l-.31-.3v-8.45c.27-.56,1-.77,1.1-1.45Z"/><path class="cls-124" d="M196.36,115.76v6h-1.1c0-.53-.35-.47-.69-.58a4,4,0,0,1-1-.73v-4.74l.31-.3A2.21,2.21,0,0,1,196.36,115.76Z"/><path class="cls-125" d="M193.06,126.2c-.78-.26-1.2.66-1.95.57a15.06,15.06,0,0,0-1.9,0c-.46-.66-1-1.31-.55-2.19a3.11,3.11,0,0,1,3.4-.15,3.62,3.62,0,0,0,1,.15A1.14,1.14,0,0,1,193.06,126.2Z"/><path class="cls-126" d="M195.26,124a1.49,1.49,0,0,1,2.19.69c.13.24.23.47.56.4a.8.8,0,0,1,0,1.1,2.65,2.65,0,0,1-3.3,0C194,125.24,194.37,124.56,195.26,124Z"/><path class="cls-127" d="M195.26,124a2.91,2.91,0,0,0-.55,2.19c-.14.76-.54.67-1,.35-.19-.13-.41-.23-.61-.35v-1.64c0-.48.27-.56.64-.56Z"/><path class="cls-128" d="M188.66,124.56l.44.16c-.8.72.41,1.34.11,2a4.26,4.26,0,0,0-2.08-.67c-.47-1.11.49-1.76.68-2.62C188.37,123.62,187.78,124.65,188.66,124.56Z"/><path class="cls-129" d="M198,126.2v-1.1c.08-.41-.28-1,.55-1.09a3.41,3.41,0,0,1,.38.38,2.49,2.49,0,0,1,.38.72,1.23,1.23,0,0,1,0,.54,2.52,2.52,0,0,1-.39.72,3.32,3.32,0,0,1-.37.38C198.18,126.77,198,126.59,198,126.2Z"/><path class="cls-130" d="M200.21,124h.55a1.52,1.52,0,0,1,.49,1,2.36,2.36,0,0,1-.1.74,1.44,1.44,0,0,1-.45.56l-.35.09a2,2,0,0,1-.64-.32l-.22-.27c0-.11,0-.23-.07-.34l0-.35a1.7,1.7,0,0,1,.28-.61Z"/><path class="cls-10" d="M203,125.1a5.08,5.08,0,0,0,0,.78c.16,1-.5.89-1.1.87l-.23-.15c0-.1,0-.19,0-.28a1.32,1.32,0,0,0,0-.81l0-.3.16-.26a.81.81,0,0,1,.59-.11A1.22,1.22,0,0,1,203,125.1Z"/><path class="cls-131" d="M200.76,125.1V124h.55c.21.22.55.31.73.58a.38.38,0,0,1-.18.51.89.89,0,0,1-.55.32A.84.84,0,0,1,200.76,125.1Z"/><path class="cls-132" d="M198.56,126.2c0-.38.17-.56.55-.55.18-.26.36-.26.55,0a1.14,1.14,0,0,1,.26.57.55.55,0,0,1-.26.53h-.55C198.92,126.58,198.74,126.39,198.56,126.2Z"/><path class="cls-133" d="M200.21,126.2c.38,0,.56-.16.55-.55a.44.44,0,0,1,.58-.11.94.94,0,0,1,.24.62.84.84,0,0,1-.27.59h-1.1c-.16-.12-.21-.24-.16-.36S200.15,126.2,200.21,126.2Z"/><path class="cls-132" d="M199.11,125.1c-.38,0-.57-.16-.55-.54.18-.19.36-.38.55-.55h.55a.73.73,0,0,1,.25.54,1,1,0,0,1-.25.55C199.47,125.32,199.29,125.32,199.11,125.1Z"/><path class="cls-134" d="M201.86,125.1v-.54c-.14-.13-.19-.25-.14-.37s.09-.18.14-.18c.38,0,.56.16.55.55a.32.32,0,0,1,.14.36c-.05.12-.1.18-.14.18Z"/><path class="cls-135" d="M199.11,124a.47.47,0,0,1-.55.55V124Z"/><path class="cls-107" d="M201.86,124v.55c-.38,0-.57-.17-.55-.55Z"/><path class="cls-136" d="M202.41,125.1v-.54c.38,0,.56.16.55.54Z"/><path class="cls-107" d="M199.66,124.56V124h.55v.55A.38.38,0,0,1,199.66,124.56Z"/><path class="cls-137" d="M200.21,126.2v.55h-.55v-.55A.38.38,0,0,1,200.21,126.2Z"/><path class="cls-107" d="M201.31,126.75v-.55a.32.32,0,0,1,.55,0v.55Z"/><path class="cls-135" d="M198.56,126.2a.47.47,0,0,1,.55.55h-.55Z"/><path class="cls-32" d="M110.58,119.06a10,10,0,0,0,1.9,0,3.1,3.1,0,0,1,2,.58c-.07.44.37.54.54.82-.34.48-1,.71-1.09,1.38h-3.25v-1.13h3.17C112.48,119.81,110.84,120.73,110.58,119.06Z"/><path class="cls-138" d="M166.12,117.41c-1.49-1.32-1.49-1.44,0-2.78l1.06.58c0,.48.24,1.08-.68,1.12C165.86,116.36,166.19,117,166.12,117.41Z"/><path class="cls-139" d="M59.39,114.28v.7c-.31.4-.7.18-1,.22s-.67,0-1,0C57.5,114.14,57.5,114.14,59.39,114.28Z"/><path class="cls-140" d="M91.33,117.41a1.37,1.37,0,0,1,0-2.2h.85c.46.63.22,1.33.19,2C92.06,117.57,91.67,117.34,91.33,117.41Z"/><path class="cls-141" d="M192,111.31h-1.56a3.21,3.21,0,0,1,1.16-3.54C192.18,109,191.84,110.07,192,111.31Z"/><path class="cls-142" d="M192,115.76v2.08c-1.88-.35-2.12-1-1.1-2.63C191.49,114.87,192,114.73,192,115.76Z"/><path class="cls-143" d="M192,115.76c-.05-.83-.68-.47-1.1-.55,0-.49.28-.55.66-.55h2.09a.75.75,0,0,1,0,1.1Z"/><ellipse class="cls-144" cx="194.98" cy="115.21" rx="1.94" ry="0.78"/><circle class="cls-145" cx="199.38" cy="125.38" r="0.39"/><path class="cls-134" d="M199.66,124.56h.55c0,.38-.17.56-.55.54Z"/><path class="cls-146" d="M201.31,125.65h-.55v-.55h.55c.15.13.21.25.15.37S201.36,125.65,201.31,125.65Z"/><path class="cls-131" d="M200.21,126.2h-.55v-.55A.47.47,0,0,1,200.21,126.2Z"/><path class="cls-107" d="M201.31,125.65v-.55h.55v.55a.36.36,0,0,1,.12.37q-.06.18-.12.18h-.55Z"/><path class="cls-133" d="M201.86,126.2v-.55c.26,0,.51,0,.43.37C202.27,126.11,202,126.14,201.86,126.2Z"/></g></svg>