<svg xmlns="http://www.w3.org/2000/svg" viewBox="0 0 300 154"><defs><style>.cls-1{fill:#e2edf9;}.cls-2{fill:#fff;}.cls-3{fill:#ee7f00;}.cls-4{fill:#383a41;}</style></defs><title>sofort-ueberweisung</title><g id="bg"><rect class="cls-1" width="300" height="154"/></g><g id="runder-rahmen"><rect class="cls-2" width="300" height="154" rx="9.21"/></g><g id="sofort-ueberweisung"><g id="layer1"><path id="path66" class="cls-3" d="M101.28,32.3A26.43,26.43,0,0,0,90,34.87,35.24,35.24,0,0,0,76.53,46.64a51.29,51.29,0,0,0-6.18,12c-3.1,8.47-3.06,15.34.1,19.87C72.25,81,76,84.1,83.56,84.11h0c13.81,0,24.12-9,30.65-26.9,1.72-4.72,4-13.54-.16-19.49-2.51-3.59-6.81-5.42-12.79-5.42Zm83.32,0a26.43,26.43,0,0,0-11.27,2.57,35.21,35.21,0,0,0-13.47,11.77,50.93,50.93,0,0,0-6.19,12c-3.09,8.47-3.06,15.34.11,19.87,1.79,2.56,5.52,5.62,13.1,5.63h0c13.81,0,24.12-9,30.64-26.9,1.73-4.72,4-13.54-.15-19.49C194.88,34.13,190.58,32.3,184.6,32.3ZM56.93,33c-4.54,0-9,0-12.91,2s-7.45,6-10.14,14.06a15.9,15.9,0,0,0-.93,4.5,6.77,6.77,0,0,0,.68,3.36,9.64,9.64,0,0,0,2.81,3.19,13.69,13.69,0,0,0,4.28,2.16l1.9.55c1,.28,2.18.63,2.92.85a6.73,6.73,0,0,1,1.35.57A2.78,2.78,0,0,1,48,65.34a2.45,2.45,0,0,1,.25,1,3.37,3.37,0,0,1-.2,1.21,3.28,3.28,0,0,1-2,2.22,14.69,14.69,0,0,1-5,.59H11.36L6.67,83.28H38.41c3,0,8.45,0,13.7-2.24s10.28-6.68,12.41-15.6c.81-3.35.56-6.08-.75-8.23s-3.7-3.69-7.17-4.69L54.91,52l-2.5-.71a3.34,3.34,0,0,1-2-1.43,2.74,2.74,0,0,1-.3-2.25,3.31,3.31,0,0,1,1.65-2A6.66,6.66,0,0,1,55,45H73.45c.13-.19.25-.4.38-.58A40.81,40.81,0,0,1,85.75,33Zm82.95,0c-8.21,0-14.33,4.16-17.21,11.94l-14,38.33H124l7.17-19.71h13.5L148.52,53H135.05l2.17-6.11a3.22,3.22,0,0,1,3.11-2h15.93c.13-.19.25-.4.38-.58A43,43,0,0,1,169.25,33Zm70.9,0-18.3,50.27H208l6.65-17.7c.33.73,4.25,17.7,4.25,17.7h16.35s-3-12.47-5.16-17.5a27.32,27.32,0,0,0-1.93-4c4.61-1.72,11.3-5.4,14.07-12.86,1.7-4.59,1.61-8.3-.28-11-2.3-3.3-7-4.92-14.27-4.93Zm31.88,0a12.64,12.64,0,0,1,2.54,2.68A13.09,13.09,0,0,1,247.29,45h9.25l-14,38.34h13.94l14-38.34H288.4L292.75,33ZM221,43.42h2.57c4.69,0,6.44,1.37,4.85,5.66-1.49,4-4.17,6.5-9.27,6.5h-2.66L221,43.42Zm-123.41.25h0c4.78,0,5.87,2.77,1.68,14.24h0C95,69.7,91.86,72.67,87.15,72.67h0c-4.58,0-6.19-2.9-1.9-14.64,3.2-8.76,7.35-14.36,12.37-14.36Zm83.32,0h0c4.77,0,5.87,2.77,1.67,14.24-4.3,11.79-7.43,14.76-12.13,14.76h0c-4.58,0-6.18-2.9-1.9-14.64,3.2-8.76,7.36-14.36,12.37-14.36Z"/><path id="path98" class="cls-4" d="M21.78,88.6a3.78,3.78,0,0,0-2.2.53A4,4,0,0,0,18.35,91c-.32.88-.37,1.49-.14,1.83s.82.53,1.81.53a3.61,3.61,0,0,0,2.21-.55A4,4,0,0,0,23.45,91c.32-.88.38-1.49.16-1.84S22.78,88.6,21.78,88.6Zm8.43,0a3.77,3.77,0,0,0-2.21.53A4,4,0,0,0,26.78,91c-.32.88-.37,1.49-.16,1.83s.82.53,1.81.53a3.67,3.67,0,0,0,2.22-.55A4,4,0,0,0,31.88,91c.32-.88.37-1.49.15-1.84S31.2,88.6,30.21,88.6Zm157.33,6.54a13.63,13.63,0,0,0-3.41.44A11.92,11.92,0,0,0,181,96.92a11.19,11.19,0,0,0-2.62,2.26,10.41,10.41,0,0,0-1.81,3.15A7,7,0,0,0,176,105a4.31,4.31,0,0,0,.5,1.94,4.42,4.42,0,0,0,1.17,1.41,11.3,11.3,0,0,0,1.57,1c.55.31,1.1.6,1.63.88a7.11,7.11,0,0,1,1.36.89,2.65,2.65,0,0,1,.81,1.07,2,2,0,0,1-.06,1.46,4.51,4.51,0,0,1-.76,1.33,4.34,4.34,0,0,1-1.14,1,5.33,5.33,0,0,1-1.48.63,6.46,6.46,0,0,1-1.73.22,7.38,7.38,0,0,1-2.37-.32,7.59,7.59,0,0,1-1.58-.7,9,9,0,0,1-1-.7,1.11,1.11,0,0,0-.65-.32.66.66,0,0,0-.37.11,1.17,1.17,0,0,0-.36.35,4.72,4.72,0,0,0-.37.66c-.12.27-.26.6-.4,1a6.78,6.78,0,0,0-.39,1.36,1,1,0,0,0,.1.72,2.21,2.21,0,0,0,.6.58,5.65,5.65,0,0,0,1.19.63,10.5,10.5,0,0,0,1.77.51,11.79,11.79,0,0,0,2.33.21,14.62,14.62,0,0,0,3.77-.5,12.62,12.62,0,0,0,3.47-1.5,12.11,12.11,0,0,0,2.89-2.47,11.09,11.09,0,0,0,2-3.45,6.71,6.71,0,0,0,.49-2.62,4.52,4.52,0,0,0-.51-1.93,4.93,4.93,0,0,0-1.21-1.41,13.25,13.25,0,0,0-1.59-1l-1.64-.87a8.67,8.67,0,0,1-1.4-.89,2.51,2.51,0,0,1-.83-1.08,2.07,2.07,0,0,1,.07-1.44,4.17,4.17,0,0,1,.6-1.06,3.56,3.56,0,0,1,.92-.85,4.26,4.26,0,0,1,1.24-.56,5.17,5.17,0,0,1,1.52-.21,6.07,6.07,0,0,1,1.85.26,7.91,7.91,0,0,1,1.35.58,8.81,8.81,0,0,1,.92.59,1.14,1.14,0,0,0,.58.27.62.62,0,0,0,.38-.12,1.17,1.17,0,0,0,.33-.36c.1-.17.21-.38.33-.64s.24-.57.37-.94.22-.62.28-.84a2.83,2.83,0,0,0,.14-.56,1.61,1.61,0,0,0,0-.36,1.07,1.07,0,0,0-.14-.33,2.15,2.15,0,0,0-.62-.48,6.93,6.93,0,0,0-1.18-.52,10.28,10.28,0,0,0-1.52-.36,9.93,9.93,0,0,0-1.73-.14Zm80.09,0a18.11,18.11,0,0,0-10.74,3.52,20,20,0,0,0-4.13,4.14,21.79,21.79,0,0,0-2.93,5.51,15.69,15.69,0,0,0-1.06,5.31,7.28,7.28,0,0,0,1.06,4,6.65,6.65,0,0,0,3.1,2.49,13.05,13.05,0,0,0,5,.85q1,0,2.07-.09c.7-.07,1.41-.17,2.12-.29s1.4-.28,2.08-.47,1.27-.35,1.74-.52a2.49,2.49,0,0,0,1.09-.68,3.41,3.41,0,0,0,.56-1l3.62-9.93a2.54,2.54,0,0,0,.15-.69,1,1,0,0,0-.09-.51.74.74,0,0,0-.31-.32,1.13,1.13,0,0,0-.51-.11h-8.43a.71.71,0,0,0-.35.11,1.5,1.5,0,0,0-.35.33,4.51,4.51,0,0,0-.36.59,8.62,8.62,0,0,0-.37.9,4.14,4.14,0,0,0-.35,1.48c0,.29.15.43.38.43h4.73L263.27,116a9.21,9.21,0,0,1-1.75.58,8.92,8.92,0,0,1-1.75.19,7.19,7.19,0,0,1-3-.56,3.9,3.9,0,0,1-1.85-1.66,5.21,5.21,0,0,1-.6-2.73,11.88,11.88,0,0,1,.8-3.77,15.16,15.16,0,0,1,1.86-3.55,12.94,12.94,0,0,1,2.6-2.76,11.65,11.65,0,0,1,3.16-1.78,11,11,0,0,1,6.36-.28,11.42,11.42,0,0,1,1.93.76,7.67,7.67,0,0,1,1.21.75,1.26,1.26,0,0,0,.69.34.68.68,0,0,0,.33-.09,1.19,1.19,0,0,0,.33-.34,4,4,0,0,0,.37-.65,9.34,9.34,0,0,0,.4-1A6.86,6.86,0,0,0,274.8,98a1.13,1.13,0,0,0-.09-.76,2.66,2.66,0,0,0-.68-.64,6.19,6.19,0,0,0-1.41-.68,13.25,13.25,0,0,0-2.12-.54A16.42,16.42,0,0,0,267.63,95.16ZM110,95.47c-.66,0-1.17,0-1.55,0a1.83,1.83,0,0,0-.88.26,1.09,1.09,0,0,0-.45.61,6,6,0,0,0-.2,1.09l-2.25,21.77a2.22,2.22,0,0,0,0,.74.65.65,0,0,0,.41.42,3.26,3.26,0,0,0,1,.2c.43,0,1,0,1.76,0s1.29,0,1.73,0a4.3,4.3,0,0,0,1.1-.21,1.77,1.77,0,0,0,.7-.43,4,4,0,0,0,.54-.72l9.53-15.82h0l-1.76,15.82a1.82,1.82,0,0,0,0,.74.62.62,0,0,0,.4.42,3.26,3.26,0,0,0,1,.2c.43,0,1,0,1.75,0s1.2,0,1.64,0a5.27,5.27,0,0,0,1.11-.2,2,2,0,0,0,.76-.42,3.61,3.61,0,0,0,.59-.74l13.63-21.72a9.89,9.89,0,0,0,.61-1.12.69.69,0,0,0,0-.63.76.76,0,0,0-.59-.26,11.16,11.16,0,0,0-1.3,0,13.55,13.55,0,0,0-1.43,0,3.16,3.16,0,0,0-.84.17,1.19,1.19,0,0,0-.49.35,4.06,4.06,0,0,0-.35.53l-11.31,19.05h0l2.2-19a1.9,1.9,0,0,0,0-.62.53.53,0,0,0-.31-.35,2.19,2.19,0,0,0-.78-.16c-.36,0-.85,0-1.47,0a13.38,13.38,0,0,0-1.4,0,3.7,3.7,0,0,0-.89.17,1.34,1.34,0,0,0-.55.35,3.89,3.89,0,0,0-.42.6l-11.46,19h0l2.58-19.11a1.79,1.79,0,0,0,.05-.57.37.37,0,0,0-.25-.31,2.31,2.31,0,0,0-.75-.13c-.35,0-.82,0-1.43,0Zm60.18,0c-.49,0-.9,0-1.23,0a5.74,5.74,0,0,0-.84.16,1.48,1.48,0,0,0-.52.25.84.84,0,0,0-.25.35l-8.57,23.56a.43.43,0,0,0,0,.35.48.48,0,0,0,.32.25,3,3,0,0,0,.72.16c.31,0,.72.05,1.2.05s.92,0,1.26-.05a4.53,4.53,0,0,0,.83-.16,1.43,1.43,0,0,0,.51-.25.82.82,0,0,0,.24-.35l8.58-23.56a.47.47,0,0,0,0-.35.56.56,0,0,0-.33-.25,3.62,3.62,0,0,0-.71-.16c-.31,0-.72,0-1.22,0Zm-154.28,0a11.06,11.06,0,0,0-1.26.06,6,6,0,0,0-.83.15,1.21,1.21,0,0,0-.51.25.82.82,0,0,0-.24.35L7.5,111.46a11.59,11.59,0,0,0-.83,4.17,5.16,5.16,0,0,0,.89,3,5,5,0,0,0,2.52,1.78,12.05,12.05,0,0,0,4,.59,16.34,16.34,0,0,0,4.68-.65,13.66,13.66,0,0,0,3.93-1.91,13.47,13.47,0,0,0,3.1-3.07A16.1,16.1,0,0,0,28,111.24l5.44-15a.47.47,0,0,0,0-.35.48.48,0,0,0-.31-.25,3.56,3.56,0,0,0-.71-.15,9.26,9.26,0,0,0-1.18-.06,11.12,11.12,0,0,0-1.25.06,5.73,5.73,0,0,0-.83.15,1.3,1.3,0,0,0-.5.25.82.82,0,0,0-.24.35l-5.47,15a10,10,0,0,1-1.21,2.35,8.48,8.48,0,0,1-1.64,1.73,7,7,0,0,1-4.27,1.44,5,5,0,0,1-2-.36,2.63,2.63,0,0,1-1.25-1.07,3.35,3.35,0,0,1-.39-1.81,8.42,8.42,0,0,1,.57-2.57L18.1,96.28a.43.43,0,0,0,0-.35.5.5,0,0,0-.32-.25,3.69,3.69,0,0,0-.72-.15,9.54,9.54,0,0,0-1.19-.06Zm187.1,0a11.06,11.06,0,0,0-1.26.06,4.8,4.8,0,0,0-.83.15,1.35,1.35,0,0,0-.51.25.82.82,0,0,0-.24.35l-5.52,15.17a11.94,11.94,0,0,0-.84,4.18,5.16,5.16,0,0,0,.89,3,5,5,0,0,0,2.52,1.78,11.82,11.82,0,0,0,4,.59,16.32,16.32,0,0,0,4.67-.65,13.44,13.44,0,0,0,7-5,16.39,16.39,0,0,0,2.17-4.11l5.44-15a.47.47,0,0,0,0-.35.48.48,0,0,0-.31-.25,3,3,0,0,0-.7-.15,9.43,9.43,0,0,0-1.19-.06,11.12,11.12,0,0,0-1.25.06,4.63,4.63,0,0,0-.83.15,1.23,1.23,0,0,0-.5.25.92.92,0,0,0-.24.35l-5.47,15a10,10,0,0,1-1.21,2.35,8.22,8.22,0,0,1-1.64,1.73,7,7,0,0,1-2,1.07,7.17,7.17,0,0,1-2.28.37,5,5,0,0,1-2-.36,2.63,2.63,0,0,1-1.25-1.07,3.34,3.34,0,0,1-.39-1.8,8.41,8.41,0,0,1,.57-2.58l5.36-14.73a.43.43,0,0,0,0-.35.5.5,0,0,0-.32-.25,3.08,3.08,0,0,0-.71-.15,9.72,9.72,0,0,0-1.2-.06Zm43.36,0c-.46,0-.84,0-1.15,0a3.51,3.51,0,0,0-.78.17,1.52,1.52,0,0,0-.48.27.82.82,0,0,0-.24.35L239.41,108c-.32.89-.64,1.82-1,2.8s-.65,1.91-.94,2.81h0c-.05-.51-.09-1-.15-1.54s-.12-1-.18-1.57-.14-1.07-.22-1.6l-.24-1.63-1.54-9.12a7.81,7.81,0,0,0-.26-1.27,1.93,1.93,0,0,0-.45-.79,1.54,1.54,0,0,0-.75-.42,4.27,4.27,0,0,0-1.18-.13h-2.72a2.66,2.66,0,0,0-1.47.46,2.61,2.61,0,0,0-1,1.36l-8.17,22.42a.54.54,0,0,0,0,.35.45.45,0,0,0,.25.26,2.31,2.31,0,0,0,.64.17,8.12,8.12,0,0,0,1.1.06,9.47,9.47,0,0,0,1.16-.06,3.77,3.77,0,0,0,.76-.17,1.32,1.32,0,0,0,.46-.26.89.89,0,0,0,.23-.35l4.76-13c.35-1,.68-1.93,1-2.84s.61-1.85.89-2.77h0q0,1.14.15,2.34c.08.8.17,1.55.28,2.25l2,11.66a13.24,13.24,0,0,0,.3,1.58,2.68,2.68,0,0,0,.45,1,1.42,1.42,0,0,0,.73.49,3.83,3.83,0,0,0,1.12.14h2.15a3,3,0,0,0,.77-.11,2.36,2.36,0,0,0,.74-.34,3,3,0,0,0,.62-.57,2.6,2.6,0,0,0,.44-.8l8.17-22.42a.62.62,0,0,0,0-.35.51.51,0,0,0-.24-.27,1.73,1.73,0,0,0-.63-.17,10.72,10.72,0,0,0-1.08,0Zm-180,.07a2.16,2.16,0,0,0-1.21.38,2.41,2.41,0,0,0-.88,1.22l-7.92,21.76a1.31,1.31,0,0,0,0,1.22,1.14,1.14,0,0,0,.94.38H69.73a.72.72,0,0,0,.36-.11,1.35,1.35,0,0,0,.36-.33,3.62,3.62,0,0,0,.37-.61c.12-.25.25-.57.39-.94s.23-.68.29-.93a2.68,2.68,0,0,0,.08-.61.51.51,0,0,0-.12-.34.39.39,0,0,0-.28-.1h-9l2.56-7h7.54a.7.7,0,0,0,.36-.1,1,1,0,0,0,.35-.32,2.76,2.76,0,0,0,.36-.59c.12-.24.25-.55.39-.92a6.87,6.87,0,0,0,.28-.92,1.77,1.77,0,0,0,.07-.6.41.41,0,0,0-.12-.32.38.38,0,0,0-.28-.11H66.17l2.21-6.09h8.91a.68.68,0,0,0,.35-.11,1.23,1.23,0,0,0,.35-.34,3.26,3.26,0,0,0,.37-.61,8.7,8.7,0,0,0,.38-.91,8.87,8.87,0,0,0,.3-1,2.17,2.17,0,0,0,.08-.61.49.49,0,0,0-.11-.34.39.39,0,0,0-.27-.1Zm20.93,0A2.16,2.16,0,0,0,86,96a2.41,2.41,0,0,0-.88,1.22l-8.25,22.66a.53.53,0,0,0,0,.35.5.5,0,0,0,.32.25,3.58,3.58,0,0,0,.72.16c.31,0,.72.05,1.21.05s.92,0,1.25-.05a5.57,5.57,0,0,0,.83-.16,1.37,1.37,0,0,0,.5-.25.87.87,0,0,0,.26-.35l3.46-9.5H87a3,3,0,0,1,1.33.25,1.84,1.84,0,0,1,.82.74,3.63,3.63,0,0,1,.42,1.23c.08.48.13,1,.18,1.67l.2,5.57a1.5,1.5,0,0,0,0,.4.51.51,0,0,0,.3.27,2.21,2.21,0,0,0,.71.14c.31,0,.74,0,1.28,0s1.15,0,1.53,0a3.68,3.68,0,0,0,.9-.13,1,1,0,0,0,.46-.24,1.25,1.25,0,0,0,.2-.36,1.91,1.91,0,0,0,.1-.53,9.21,9.21,0,0,0,0-1.07l-.31-4.91a13.57,13.57,0,0,0-.17-1.6,6.12,6.12,0,0,0-.37-1.25,2.89,2.89,0,0,0-.58-.93,3.25,3.25,0,0,0-.81-.66,11.91,11.91,0,0,0,2.41-1,9.74,9.74,0,0,0,2-1.41,9.12,9.12,0,0,0,1.6-1.84,9.75,9.75,0,0,0,1.15-2.28A7.1,7.1,0,0,0,101,99.8a3.63,3.63,0,0,0-2.11-3.35,7.77,7.77,0,0,0-2.45-.73c-.33,0-.7-.07-1.12-.1s-1,0-1.6,0Zm60.93,0a2.19,2.19,0,0,0-1.21.38,2.41,2.41,0,0,0-.88,1.22l-7.92,21.76c-.2.56-.21,1,0,1.22a1.13,1.13,0,0,0,.94.38h12.53a.72.72,0,0,0,.36-.11,1.35,1.35,0,0,0,.36-.33,3.07,3.07,0,0,0,.37-.61c.12-.25.25-.57.39-.94h0c.13-.37.23-.68.29-.93a1.83,1.83,0,0,0,.07-.61.46.46,0,0,0-.11-.34.39.39,0,0,0-.28-.1h-9l2.56-7h7.54a.73.73,0,0,0,.36-.1,1,1,0,0,0,.35-.32,2.76,2.76,0,0,0,.36-.59c.12-.24.25-.55.39-.92a8.74,8.74,0,0,0,.28-.92,1.77,1.77,0,0,0,.07-.6.45.45,0,0,0-.12-.32.38.38,0,0,0-.28-.11H148l2.22-6.09h8.91a.71.71,0,0,0,.35-.11,1.37,1.37,0,0,0,.35-.34,3.26,3.26,0,0,0,.37-.61,8.7,8.7,0,0,0,.38-.91,8.87,8.87,0,0,0,.3-1A2.61,2.61,0,0,0,161,96a.49.49,0,0,0-.11-.34.41.41,0,0,0-.27-.1Zm-105.79,0a2.16,2.16,0,0,0-1.21.38,2.41,2.41,0,0,0-.88,1.22l-7.92,21.76c-.2.56-.21,1,0,1.22a1.13,1.13,0,0,0,.94.38H39.9a18.63,18.63,0,0,0,2.79-.19,16.15,16.15,0,0,0,2.52-.56,13.7,13.7,0,0,0,2.33-1,10.93,10.93,0,0,0,2.06-1.42,11.6,11.6,0,0,0,1.71-1.91,10.78,10.78,0,0,0,1.25-2.41,7,7,0,0,0,.45-2.3A4.13,4.13,0,0,0,52.6,109a3.33,3.33,0,0,0-1.11-1.25,4.5,4.5,0,0,0-1.71-.67,8.89,8.89,0,0,0,1.77-.81,8.29,8.29,0,0,0,1.51-1.16,8.39,8.39,0,0,0,1.21-1.45,9.09,9.09,0,0,0,.85-1.71,6.35,6.35,0,0,0,.45-2.82,3.2,3.2,0,0,0-1-2A4.89,4.89,0,0,0,52.36,96a14.78,14.78,0,0,0-3.74-.39Zm2.09,3.8H47a5.54,5.54,0,0,1,1.8.22,2,2,0,0,1,1,.6,1.64,1.64,0,0,1,.33,1,3.6,3.6,0,0,1-.26,1.35,5.27,5.27,0,0,1-.68,1.28,4.93,4.93,0,0,1-1,1.06,4.83,4.83,0,0,1-1.35.71,5.76,5.76,0,0,1-1.85.26H42.08Zm44.92.08h2.28a11.28,11.28,0,0,1,1.34.06,6.43,6.43,0,0,1,.82.15,1.89,1.89,0,0,1,1.4,1.2A3.33,3.33,0,0,1,95,103a5.5,5.5,0,0,1-.8,1.47A5.32,5.32,0,0,1,93,105.55a6.08,6.08,0,0,1-1.61.73,7.37,7.37,0,0,1-2,.26H86.79ZM40.73,109.57h3a7.25,7.25,0,0,1,2.16.25,2.41,2.41,0,0,1,1.17.71,1.92,1.92,0,0,1,.43,1.15,3.87,3.87,0,0,1-.27,1.55,4.78,4.78,0,0,1-.84,1.48,5.16,5.16,0,0,1-1.22,1.07,5.61,5.61,0,0,1-1.5.66,6.88,6.88,0,0,1-1.86.22H38.15Z"/></g></g></svg>