<svg xmlns="http://www.w3.org/2000/svg" viewBox="0 0 300 154"><defs><style>.cls-1{fill:#e2edf9;}.cls-2{fill:#fff;}</style></defs><title>spedition</title><g id="bg"><rect class="cls-1" width="300" height="154"/></g><g id="runder-rahmen"><rect class="cls-2" width="300" height="154" rx="9.21"/></g><g id="spedition"><path d="M188.47,62.41h-2V48.91a6,6,0,0,0-1.76-4.24L172.23,32.19A6,6,0,0,0,168,30.43h-5.51v-6a6,6,0,0,0-6-6h-40a6,6,0,0,0-6,6v40a6,6,0,0,0,6,6h2a12,12,0,1,0,24,0h16a12,12,0,0,0,24,0h6a2,2,0,0,0,2-2v-4A2,2,0,0,0,188.47,62.41Zm-57.95,14a6,6,0,1,1,6-6A6,6,0,0,1,130.52,76.39Zm40,0a6,6,0,1,1,6-6A6,6,0,0,1,170.48,76.39Zm10-26h-18v-14H168l12.47,12.48Z"/><path d="M79.78,118.83a8,8,0,0,1-.81,3.44,8.31,8.31,0,0,1-2.28,2.88,12.12,12.12,0,0,1-3.73,2,16.13,16.13,0,0,1-5.14.72,25.56,25.56,0,0,1-5.79-.6,29.22,29.22,0,0,1-5.24-1.78v-5h.28a16.54,16.54,0,0,0,5.23,2.9,17.11,17.11,0,0,0,5.56,1,10.21,10.21,0,0,0,5.74-1.38,4.24,4.24,0,0,0,2.05-3.68,3.91,3.91,0,0,0-1-2.93,6.62,6.62,0,0,0-3-1.46,28.23,28.23,0,0,0-3.25-.66q-1.76-.25-3.72-.66a11,11,0,0,1-5.87-2.87,7.83,7.83,0,0,1,1.25-11.43,12.89,12.89,0,0,1,8-2.4,25.82,25.82,0,0,1,10.41,2.09v4.68h-.28a13.63,13.63,0,0,0-4.47-2.39,17.23,17.23,0,0,0-5.68-1A8.9,8.9,0,0,0,63,101.73a4,4,0,0,0-1.93,3.4,4.18,4.18,0,0,0,1,2.92,6.53,6.53,0,0,0,3.38,1.63c.86.18,2.07.41,3.65.68s2.9.54,4,.82a10.3,10.3,0,0,1,5,2.66A7,7,0,0,1,79.78,118.83Z"/><path d="M105.52,115.88a15.12,15.12,0,0,1-.78,5,10.81,10.81,0,0,1-2.2,3.81,9.19,9.19,0,0,1-6.91,3.1,11.83,11.83,0,0,1-3.15-.38,12.53,12.53,0,0,1-2.87-1.18v9.37H85.84V105h3.77v2.34A14.64,14.64,0,0,1,93,105.2a9.5,9.5,0,0,1,4-.85,7.39,7.39,0,0,1,6.3,3.05Q105.52,110.46,105.52,115.88Zm-3.88.1c0-2.69-.46-4.71-1.38-6a4.81,4.81,0,0,0-4.25-2,8.36,8.36,0,0,0-3.26.7,14.78,14.78,0,0,0-3.14,1.85v12.67a14.49,14.49,0,0,0,2.75,1,12.14,12.14,0,0,0,2.61.26,6,6,0,0,0,4.91-2.12C101.05,120.85,101.64,118.76,101.64,116Z"/><path d="M130.1,116.54H113.63a9.62,9.62,0,0,0,.62,3.6,6.68,6.68,0,0,0,1.7,2.51,6.85,6.85,0,0,0,2.47,1.44,9.93,9.93,0,0,0,3.16.48,12.38,12.38,0,0,0,4.59-.91,11.26,11.26,0,0,0,3.29-1.79h.2V126a29.64,29.64,0,0,1-3.88,1.34,15.76,15.76,0,0,1-4.16.54q-5.57,0-8.69-3t-3.12-8.56c0-3.65,1-6.56,3-8.71a10.23,10.23,0,0,1,7.88-3.22,9,9,0,0,1,7,2.64c1.64,1.76,2.45,4.27,2.45,7.51Zm-3.66-2.88a6.62,6.62,0,0,0-1.49-4.58,5.71,5.71,0,0,0-4.47-1.63,6.52,6.52,0,0,0-4.82,1.79,6.91,6.91,0,0,0-2,4.42Z"/><path d="M154,127.33h-3.77V125a13.59,13.59,0,0,1-3.38,2.18A9.32,9.32,0,0,1,143,128a7.57,7.57,0,0,1-6.36-3.08q-2.35-3.08-2.35-8.55a14.72,14.72,0,0,1,.81-5.06,11.72,11.72,0,0,1,2.19-3.79,9.45,9.45,0,0,1,3.17-2.32,9.27,9.27,0,0,1,3.76-.8,11.82,11.82,0,0,1,3.12.37,14.61,14.61,0,0,1,2.86,1.15V96.18H154Zm-3.77-5.5V109a14.14,14.14,0,0,0-2.72-1,12.58,12.58,0,0,0-2.62-.26,6,6,0,0,0-4.93,2.21,9.78,9.78,0,0,0-1.76,6.24,11.14,11.14,0,0,0,1.36,6.06,4.85,4.85,0,0,0,4.37,2.07,8.14,8.14,0,0,0,3.24-.71A13.2,13.2,0,0,0,150.18,121.83Z"/><path d="M165.4,101.23h-4.24V97.32h4.24Zm-.24,26.1H161.4V105h3.76Z"/><path d="M184.22,127.13a20.08,20.08,0,0,1-2.31.46,16,16,0,0,1-2.24.18,6.9,6.9,0,0,1-5.2-1.84c-1.19-1.23-1.78-3.19-1.78-5.9v-11.9h-2.55V105h2.55V98.54h3.76V105h7.77v3.16h-7.77v10.19c0,1.18,0,2.1.08,2.76a4.43,4.43,0,0,0,.56,1.85,2.73,2.73,0,0,0,1.21,1.17,5.68,5.68,0,0,0,2.36.37,7.4,7.4,0,0,0,1.92-.27,14.66,14.66,0,0,0,1.44-.45h.2Z"/><path d="M192.81,101.23h-4.25V97.32h4.25Zm-.24,26.1H188.8V105h3.77Z"/><path d="M219.07,116.16c0,3.65-.93,6.52-2.8,8.63a10.54,10.54,0,0,1-15.05,0c-1.86-2.11-2.79-5-2.79-8.63s.93-6.52,2.79-8.64a10.52,10.52,0,0,1,15.05,0Q219.08,110.7,219.07,116.16Zm-3.88,0c0-2.89-.57-5-1.7-6.45a6.36,6.36,0,0,0-9.48,0c-1.13,1.4-1.69,3.56-1.69,6.45s.56,4.93,1.7,6.38a5.66,5.66,0,0,0,4.74,2.17,5.73,5.73,0,0,0,4.72-2.15Q215.19,120.4,215.19,116.16Z"/><path d="M243.6,127.33h-3.77V114.6a21.86,21.86,0,0,0-.18-2.89,5.25,5.25,0,0,0-.66-2.11,3.06,3.06,0,0,0-1.44-1.26,6.23,6.23,0,0,0-2.44-.41,8,8,0,0,0-3.23.76,16.56,16.56,0,0,0-3.22,2v16.69H224.9V105h3.76v2.48a15.55,15.55,0,0,1,3.65-2.28,9.5,9.5,0,0,1,3.86-.82,6.93,6.93,0,0,1,5.52,2.18,9.29,9.29,0,0,1,1.91,6.29Z"/></g></svg>