<svg xmlns="http://www.w3.org/2000/svg" viewBox="0 0 300 154"><defs><style>.cls-1{fill:#e2edf9;}.cls-2,.cls-3{fill:#fff;}.cls-3{stroke:#007fc3;stroke-miterlimit:206.97;stroke-width:1.71px;}.cls-4{fill:#007fc3;}.cls-4,.cls-5,.cls-7{fill-rule:evenodd;}.cls-5,.cls-6{fill:red;}.cls-7,.cls-9{fill:#292526;}.cls-8{fill:none;stroke:#292526;stroke-miterlimit:214.26;stroke-width:1.06px;}</style></defs><title>ueberweisung-vorkasse</title><g id="bg"><rect class="cls-1" width="300" height="154"/></g><g id="runder-rahmen"><rect class="cls-2" width="300" height="154" rx="9.21"/></g><g id="ueberweisung-vorkasse"><g id="layer1"><g id="g4785"><g id="g2345"><path id="path2347" class="cls-3" d="M9.09,44.65c.56-5.87,6.71-3.7,10-4.11H50.24c12,.24,16.81-1.56,16.77,4.85-.22,66.43,1,62.16-2,64.43-.77,1.38-34.86.26-48,.6-4.29.14-7.79.2-7.93-4.4Z"/></g><g id="g2349"><path id="path2351" class="cls-4" d="M26.57,57.67v6.57h3.67V55.68C28.42,55.62,26.73,55.58,26.57,57.67Zm0,22.7c.2,2.37,2.07,2.1,3.67,2.09V75.77H41.69v15.8c-31.32-.61-25.77,5-26.32-22.76.3-27.9-4-21.4,26.32-22.24V73.12H26.57v7.25"/></g><g id="g2353"><path id="path2355" class="cls-4" d="M16.39,100.58h1.06C17.66,98.46,16.11,98.8,16.39,100.58Zm-1.05,1.58c-.69-5.87,3.82-5.44,3.16-.39H16.39c-.24,2.44,1.07,2.72,1.05.75h1c.26,3.48-3.5,3.2-3.14-.36"/></g><g id="g2357"><path id="path2359" class="cls-5" d="M60.84,91.57c-30.28-.61-25.31,5-25.74-23,.22-27.39-3.65-21.17,25.74-22V64.22h-11V55.65c-1.7-.26-3.53.12-3.63,2.11V80.35c.11,2,1.93,2.38,3.65,2.1.05-.3-.09-9,.05-9.35H60.84V91.57"/></g><g id="g2361"><path id="path2363" class="cls-6" d="M50.13,100.43H49.08c-.43-3.45-1,.61-.77,2.32.11,2.09,1,.68.77-.57h1.05c.37,3.45-2.65,3.69-2.85.9-.67-7.79,3.32-5.23,2.85-2.65"/></g><g id="g2365"><path id="path2367" class="cls-7" d="M39.93,91.57c-7.26-.45-4.23-11.32-4.83-15.8h6.59v15.8ZM35.1,51.67c.13-3.63,3.1-5.56,6.59-5.1V73.12H35.1V51.67"/></g><g id="g2369"><path id="path2371" class="cls-8" d="M19.83,104.78V95.92"/></g><g id="g2373"><path id="path2375" class="cls-7" d="M22.16,100.58h1.05C23.44,98.46,21.9,98.7,22.16,100.58Zm-1,1.58c-.69-5.87,3.82-5.44,3.15-.39H22.16c-.24,2.44,1.06,2.72,1,.75h1.05c.26,3.47-3.48,3.21-3.13-.36"/></g><g id="g2377"><path id="path2379" class="cls-9" d="M27.72,100.43h-1c.18-1.59-.8-1.84-.76-.09-.26,4.69.9,3.88.76,1.84h1c.34,3.06-2,3.6-2.68,1.74-1.31-8.61,3.24-6.29,2.68-3.49"/></g><g id="g2381"><path id="path2383" class="cls-9" d="M29.86,103.6v1.21c-2.49.91-1.2-4.49-1.5-5.58h-.42V98.12h.4V96.28H29.4v1.84h.46v1.11H29.4c.15.44-.41,4.9.46,4.37"/></g><g id="g2385"><path id="path2387" class="cls-9" d="M31.3,98.12V99.3h0c.13-.6.51-1.32,1.07-1.3v1.83c-1.77-.49-.82,4.17-1.05,5H30.28V98.12h1"/></g><g id="g2389"><path id="path2391" class="cls-7" d="M34.27,105c-2.38.58-1.91-6.79-.65-6.89C36.79,96.53,36.48,105.73,34.27,105Zm-.57-4.56c0,.36,0,2.13,0,2.76,2,3.34,1-7.92,0-2.76"/></g><g id="g2393"><path id="path2395" class="cls-9" d="M37.56,98.12v.68h0c2.73-3.72,1.89,5,2,6h-1c.32-8.51-1.4-6.38-1,0H36.51V98.12h1.05"/></g><path id="path2397" class="cls-7" d="M41.45,97.31H40.39V95.92h1.06Zm0,7.47H40.39V98.11h1.06Z"/><g id="g2399"><path id="path2401" class="cls-9" d="M45,100.43H44c-.29-3.26-1,.26-.73,1.48-.21,2.58.91,2.33.73.27H45c.33,3-2,3.6-2.7,1.75-1.31-8.6,3.23-6.31,2.7-3.5"/></g><g id="g2403"><path id="path2405" class="cls-7" d="M52.63,102v-.71C50.22,103,52.8,105.59,52.63,102Zm1.13,2.8h-1a2.5,2.5,0,0,1-.06-.68c-1.61,2.62-2.94-1.3-1.65-2.76,3.33-2,.4-3.19.52-1.25h-1c-.25-3,3.45-2.76,3.11-.18,0,.71-.07,4.25.07,4.87"/></g><g id="g2407"><path id="path2409" class="cls-9" d="M54.22,102.59h1c-.2,1.79,1.1,1.3.93.44a1.24,1.24,0,0,0-.51-.79c-4.18-3.88,1.81-6.34,1.59-2.1H56.22c0-1.62-1.14-1-.9-.18.67,1.13,1.83,1.36,2,2.83.32,2.87-3.32,3-3.06-.2"/></g><g id="g2411"><path id="path2413" class="cls-9" d="M58.87,104.78H57.81V95.92h1.06V98.8h0c2.75-3.7,1.88,5,2,6H59.83c.33-8.65-1.38-6.57-1,0"/></g></g></g><path d="M102,50.58,98.93,63.75a11.12,11.12,0,0,1-3.49,6.35q-2.47,2-7.14,2-4.17,0-6.3-1.5a5.13,5.13,0,0,1-2.14-4.52A7.64,7.64,0,0,1,80,64.8c.06-.43.14-.81.21-1.16l3-13.06h5.48l-3,13.07c-.06.27-.12.56-.16.87a6.56,6.56,0,0,0-.06.79,2.5,2.5,0,0,0,.8,2,4.09,4.09,0,0,0,2.65.68,4.21,4.21,0,0,0,2.91-1,5.74,5.74,0,0,0,1.6-3.08l3.1-13.36Zm-9.94-6.23-.89,3.87H87l.9-3.87Zm7.61,0-.9,3.87h-4.2l.89-3.87Z"/><path d="M120.68,60.85a12.77,12.77,0,0,1-.7,4.2,11.58,11.58,0,0,1-1.92,3.56,9.57,9.57,0,0,1-2.91,2.45,7.6,7.6,0,0,1-3.7.92,9.56,9.56,0,0,1-2.38-.27,5.75,5.75,0,0,1-1.88-.84l-.37.8h-4.93l5.08-22h5.13l-1.79,7.79a17.29,17.29,0,0,1,2.61-1.52,6.53,6.53,0,0,1,2.77-.57,4.66,4.66,0,0,1,3.73,1.46A6,6,0,0,1,120.68,60.85Zm-5.39.95a3.13,3.13,0,0,0-.58-2,2.53,2.53,0,0,0-2-.69,4.38,4.38,0,0,0-1.47.26,11.08,11.08,0,0,0-1.53.69l-1.83,8a5.83,5.83,0,0,0,1,.32,5.89,5.89,0,0,0,1.25.12,4.42,4.42,0,0,0,3.74-1.86A7.78,7.78,0,0,0,115.29,61.8Z"/><path d="M131.14,72.11a9.73,9.73,0,0,1-6.28-1.8,6.08,6.08,0,0,1-2.21-5,10.71,10.71,0,0,1,.72-4,9.6,9.6,0,0,1,2.09-3.19,9.24,9.24,0,0,1,3.26-2.11,11.45,11.45,0,0,1,4.29-.78,8.51,8.51,0,0,1,5.37,1.44,5.11,5.11,0,0,1,1.8,4.25,9,9,0,0,1-.19,1.88,16.49,16.49,0,0,1-.5,1.83H127.65V65a3.15,3.15,0,0,0,1.16,2.59,5.69,5.69,0,0,0,3.57.93,9.08,9.08,0,0,0,3.17-.56,15.12,15.12,0,0,0,2.61-1.26h.56l-.95,4.09a15.41,15.41,0,0,1-3.13,1A17.76,17.76,0,0,1,131.14,72.11ZM135,61.68c0-.17.05-.32.07-.47s0-.28,0-.44a2.16,2.16,0,0,0-.7-1.72,3,3,0,0,0-2-.59,4.14,4.14,0,0,0-2.66.85,5.28,5.28,0,0,0-1.62,2.37Z"/><path d="M155.53,60.62h-.45a5.12,5.12,0,0,0-1-.17c-.42,0-.83-.05-1.23-.05A11.36,11.36,0,0,0,149,61l-2.47,10.65h-5.13l3.69-15.91h5.13l-.54,2.34a17.23,17.23,0,0,1,2.87-1.73,6.88,6.88,0,0,1,2.9-.66h.6l.58,0Z"/><path d="M184.89,55.76l-8.32,15.91h-5.41L170.1,60.92l-5.37,10.75h-5.48l-1.5-15.91H163l.47,11,5.64-11h4.52l1,11,4.91-11Z"/><path d="M193.22,72.11a9.71,9.71,0,0,1-6.28-1.8,6.08,6.08,0,0,1-2.21-5,10.71,10.71,0,0,1,.72-4,9.45,9.45,0,0,1,2.09-3.19,9.19,9.19,0,0,1,3.25-2.11,11.54,11.54,0,0,1,4.3-.78,8.46,8.46,0,0,1,5.36,1.44A5.09,5.09,0,0,1,202.26,61a9,9,0,0,1-.19,1.88,14.61,14.61,0,0,1-.51,1.83H189.73V65a3.15,3.15,0,0,0,1.16,2.59,5.69,5.69,0,0,0,3.57.93,9.08,9.08,0,0,0,3.17-.56,14.66,14.66,0,0,0,2.6-1.26h.57l-1,4.09a15.41,15.41,0,0,1-3.13,1A17.76,17.76,0,0,1,193.22,72.11Zm3.9-10.43a4.32,4.32,0,0,0,.06-.47,3,3,0,0,0,0-.44,2.16,2.16,0,0,0-.7-1.72,3,3,0,0,0-2-.59,4.13,4.13,0,0,0-2.65.85,5.2,5.2,0,0,0-1.62,2.37Z"/><path d="M212.33,55.76l-3.69,15.91h-5.13l3.68-15.91Zm1.55-6.13L213,53.5h-5.41l.9-3.87Z"/><path d="M219.55,72.11a19.67,19.67,0,0,1-4-.39,11.83,11.83,0,0,1-2.93-.89l1-4.19h.46a7.71,7.71,0,0,0,.79.59,7,7,0,0,0,1.35.68,10,10,0,0,0,1.75.56,9,9,0,0,0,2.14.24,6.46,6.46,0,0,0,2.57-.4,1.22,1.22,0,0,0,.86-1.13.94.94,0,0,0-.61-.87,15.09,15.09,0,0,0-2.52-.73A10.73,10.73,0,0,1,216,63.77a3.41,3.41,0,0,1-1.2-2.65,4.79,4.79,0,0,1,2.41-4.24,11.83,11.83,0,0,1,6.51-1.55,18,18,0,0,1,3.57.36,11.24,11.24,0,0,1,2.62.77l-.94,4h-.44a8.45,8.45,0,0,0-2.43-1.27,9.08,9.08,0,0,0-2.92-.49,6.36,6.36,0,0,0-2.51.39,1.27,1.27,0,0,0-.87,1.2,1.06,1.06,0,0,0,.75,1,13.12,13.12,0,0,0,2.37.68,11.43,11.43,0,0,1,4.33,1.65,3.24,3.24,0,0,1,1.33,2.77,4.74,4.74,0,0,1-2.44,4.2A12.25,12.25,0,0,1,219.55,72.11Z"/><path d="M250.16,55.76l-3.67,15.91h-5.13l.4-1.76c-.51.33-1,.64-1.49.93a9.71,9.71,0,0,1-1.38.68,7.18,7.18,0,0,1-1.5.46,6.86,6.86,0,0,1-1.35.13,5,5,0,0,1-3.3-1,3.63,3.63,0,0,1-1.21-3,7.79,7.79,0,0,1,.06-1,8.66,8.66,0,0,1,.18-1l2.39-10.36h5.15l-1.82,7.89c-.15.61-.25,1.13-.32,1.56a7.13,7.13,0,0,0-.11,1.1,1.78,1.78,0,0,0,.45,1.36,2.68,2.68,0,0,0,1.72.41,4.62,4.62,0,0,0,1.43-.27,10.34,10.34,0,0,0,1.77-.77L245,55.76Z"/><path d="M269.92,59.36a7.72,7.72,0,0,1-.06.92c0,.33-.1.68-.18,1L267.3,71.67h-5.16L264,63.78c.13-.59.23-1.09.31-1.5a7.07,7.07,0,0,0,.11-1.16,1.75,1.75,0,0,0-.46-1.35,2.65,2.65,0,0,0-1.72-.42,4.36,4.36,0,0,0-1.4.26,11.33,11.33,0,0,0-1.79.79l-2.59,11.27h-5.13L255,55.76h5.13l-.42,1.76a19.23,19.23,0,0,1,2.87-1.61,6.82,6.82,0,0,1,2.85-.58,4.94,4.94,0,0,1,3.34,1A3.77,3.77,0,0,1,269.92,59.36Z"/><path d="M291.09,55.76l-3.2,14.08a11.78,11.78,0,0,1-1.48,3.77A7.86,7.86,0,0,1,284.07,76,9.46,9.46,0,0,1,281,77.29a17.65,17.65,0,0,1-3.73.37,26.8,26.8,0,0,1-5.94-.68l.78-3.91h.63a16.7,16.7,0,0,0,2.38.72,9.84,9.84,0,0,0,2.14.27,9.48,9.48,0,0,0,2.34-.25,3.9,3.9,0,0,0,1.56-.71,3.75,3.75,0,0,0,1-1.22,7.5,7.5,0,0,0,.58-1.77l.07-.3a11.61,11.61,0,0,1-2.2,1.19,6.58,6.58,0,0,1-2.46.44,6.07,6.07,0,0,1-4.19-1.35A5.17,5.17,0,0,1,272.42,66a11.27,11.27,0,0,1,2.65-7.7,8.28,8.28,0,0,1,6.44-3,8.69,8.69,0,0,1,2.47.32,5.85,5.85,0,0,1,1.79.82l.36-.71Zm-6,3.69A6.1,6.1,0,0,0,284,59.1a5,5,0,0,0-1.18-.16,4.51,4.51,0,0,0-3.68,1.71,6.74,6.74,0,0,0-1.39,4.4,2.3,2.3,0,0,0,2.74,2.58,4.45,4.45,0,0,0,1.53-.29,8.79,8.79,0,0,0,1.45-.69Z"/><path d="M97,83.49,86.14,101.67H82.92L80.5,83.49H83l2,16,9.37-16Z"/><path d="M108.93,92.85a11.18,11.18,0,0,1-.56,3.52,9.09,9.09,0,0,1-1.59,2.93,8,8,0,0,1-2.45,2,7,7,0,0,1-3.25.73,5.09,5.09,0,0,1-3.79-1.39,5.21,5.21,0,0,1-1.36-3.83,11,11,0,0,1,.55-3.49,9.58,9.58,0,0,1,1.61-3,7.53,7.53,0,0,1,2.48-2,7,7,0,0,1,3.22-.75A5.16,5.16,0,0,1,107.54,89,5.09,5.09,0,0,1,108.93,92.85ZM105.19,98a7.46,7.46,0,0,0,1-2.25,10.43,10.43,0,0,0,.35-2.71,3.66,3.66,0,0,0-.82-2.59,3,3,0,0,0-2.31-.88,4,4,0,0,0-2.12.57,5.3,5.3,0,0,0-1.62,1.55,7.67,7.67,0,0,0-1,2.26,10.39,10.39,0,0,0-.35,2.69,3.73,3.73,0,0,0,.82,2.59,3,3,0,0,0,2.32.9,4.12,4.12,0,0,0,2.12-.56A5,5,0,0,0,105.19,98Z"/><path d="M121.71,90.45h-.12c-.33-.08-.63-.14-.91-.18a9.63,9.63,0,0,0-1,0,5.33,5.33,0,0,0-2.27.52A13.7,13.7,0,0,0,115.23,92L113,101.67H110.7L113.81,88h2.32l-.46,2a13.63,13.63,0,0,1,2.75-1.58,6,6,0,0,1,2.17-.44,8.47,8.47,0,0,1,.86,0l.79.12Z"/><path d="M133.89,101.67h-2.78l-4.36-6-2,1.6-1,4.4h-2.31l4.39-19h2.31l-2.82,12.2,8-6.84h3l-7.78,6.45Z"/><path d="M144.7,100.21l-.9.56a9.89,9.89,0,0,1-1.15.62,9.18,9.18,0,0,1-1.4.47,7.74,7.74,0,0,1-1.77.19,3.69,3.69,0,0,1-2.63-1,3.22,3.22,0,0,1-1-2.47,4.92,4.92,0,0,1,.72-2.74,5.12,5.12,0,0,1,2.12-1.83,11.5,11.5,0,0,1,3.32-1,36.65,36.65,0,0,1,4.44-.38c0-.23.09-.42.13-.59a3,3,0,0,0,.05-.52,1.78,1.78,0,0,0-.23-1,1.72,1.72,0,0,0-.66-.59,3.56,3.56,0,0,0-1-.3,8.85,8.85,0,0,0-3.62.26,16.93,16.93,0,0,0-2.16.66h-.13l.45-2.29q.7-.18,2-.42a15.73,15.73,0,0,1,2.58-.23,7.3,7.3,0,0,1,3.81.8A2.75,2.75,0,0,1,149,91a4.41,4.41,0,0,1-.06.7,6.72,6.72,0,0,1-.13.7l-2.13,9.26h-2.27ZM146,94.48a33,33,0,0,0-3.34.28,10.23,10.23,0,0,0-2.41.62,3.41,3.41,0,0,0-1.5,1.09,2.75,2.75,0,0,0-.52,1.72,1.6,1.6,0,0,0,.6,1.34,3,3,0,0,0,1.86.46A5.69,5.69,0,0,0,143,99.5a12.44,12.44,0,0,0,2.15-1.19Z"/><path d="M155.32,102a9.14,9.14,0,0,1-2.73-.38,11.57,11.57,0,0,1-2-.82l.51-2.45h.12l.67.52a7.26,7.26,0,0,0,1,.59,7.77,7.77,0,0,0,1.32.48,6.16,6.16,0,0,0,1.58.2,5,5,0,0,0,2.7-.63,2.1,2.1,0,0,0,1-1.87,1.14,1.14,0,0,0-.5-1,4.11,4.11,0,0,0-1.44-.56l-1.14-.25c-.44-.09-.89-.19-1.35-.32A4.25,4.25,0,0,1,153,94.35a2.67,2.67,0,0,1-.68-1.86,3.85,3.85,0,0,1,.41-1.78,4.89,4.89,0,0,1,1.23-1.53,6.06,6.06,0,0,1,2-1.07,8.44,8.44,0,0,1,2.69-.41A9.64,9.64,0,0,1,161,88a7.68,7.68,0,0,1,2,.75l-.49,2.35h-.12a7.19,7.19,0,0,0-.6-.43,6.79,6.79,0,0,0-1-.55,7.41,7.41,0,0,0-1.23-.4,6.34,6.34,0,0,0-1.46-.17,4.35,4.35,0,0,0-2.48.64,2,2,0,0,0-.95,1.75,1.3,1.3,0,0,0,.47,1,3.31,3.31,0,0,0,1.41.64c.4.1.82.19,1.25.27l1.27.28a4.38,4.38,0,0,1,2.13,1.1,2.61,2.61,0,0,1,.71,1.87,4.14,4.14,0,0,1-.44,1.83,4.57,4.57,0,0,1-1.29,1.56,6.52,6.52,0,0,1-2.1,1.09A9.18,9.18,0,0,1,155.32,102Z"/><path d="M168.34,102a9.24,9.24,0,0,1-2.73-.38,11.12,11.12,0,0,1-2-.82l.51-2.45h.12c.17.14.39.32.67.52a7.26,7.26,0,0,0,1,.59,7.65,7.65,0,0,0,1.31.48,6.16,6.16,0,0,0,1.58.2,5,5,0,0,0,2.7-.63,2.1,2.1,0,0,0,1-1.87,1.17,1.17,0,0,0-.5-1,4.28,4.28,0,0,0-1.44-.56c-.32-.08-.7-.16-1.15-.25s-.89-.19-1.34-.32A4.28,4.28,0,0,1,166,94.35a2.72,2.72,0,0,1-.68-1.86,3.86,3.86,0,0,1,.42-1.78,4.62,4.62,0,0,1,1.23-1.53,6,6,0,0,1,2-1.07,8.37,8.37,0,0,1,2.68-.41,9.66,9.66,0,0,1,2.44.31,7.46,7.46,0,0,1,2,.75l-.49,2.35h-.12c-.13-.11-.33-.25-.59-.43a7,7,0,0,0-1-.55,7.59,7.59,0,0,0-1.22-.4,6.41,6.41,0,0,0-1.46-.17,4.33,4.33,0,0,0-2.48.64,2,2,0,0,0-.95,1.75,1.29,1.29,0,0,0,.46,1,3.3,3.3,0,0,0,1.42.64c.4.1.81.19,1.25.27s.86.18,1.26.28a4.29,4.29,0,0,1,2.13,1.1,2.57,2.57,0,0,1,.72,1.87A4,4,0,0,1,174.5,99a4.57,4.57,0,0,1-1.29,1.56,6.42,6.42,0,0,1-2.1,1.09A9.13,9.13,0,0,1,168.34,102Z"/><path d="M183.56,102a6.74,6.74,0,0,1-4.44-1.33,4.75,4.75,0,0,1-1.61-3.89,9.38,9.38,0,0,1,2.37-6.43,7.5,7.5,0,0,1,5.85-2.68,5,5,0,0,1,3.55,1.16,4.23,4.23,0,0,1,1.23,3.24c0,.24,0,.63-.1,1.16s-.19,1.14-.34,1.84H180c0,.24-.08.47-.1.7s0,.44,0,.63a3.5,3.5,0,0,0,1.05,2.7,4.17,4.17,0,0,0,3,1,8,8,0,0,0,2.76-.53,10.86,10.86,0,0,0,2.39-1.18h.13l-.5,2.48-1.09.4c-.33.12-.74.24-1.25.37s-1,.21-1.34.28A9.89,9.89,0,0,1,183.56,102Zm4.58-8.61q.06-.36.09-.6c0-.16,0-.34,0-.54a2.83,2.83,0,0,0-.71-2,3.09,3.09,0,0,0-2.29-.73,4.83,4.83,0,0,0-3.08,1.07,5.34,5.34,0,0,0-1.82,2.84Z"/></g></svg>